<svg width="583" height="170" viewBox="0 0 583 170" fill="none" xmlns="http://www.w3.org/2000/svg">
<path d="M10.2392 88.7531V81.8394H44.9685V88.7531H31.543V123H23.7182V88.7531H10.2392ZM68.8649 123.831C65.0061 123.831 61.6386 122.946 58.7624 121.178C55.8861 119.409 53.653 116.935 52.0631 113.755C50.4731 110.575 49.6781 106.859 49.6781 102.607C49.6781 98.3376 50.4731 94.6038 52.0631 91.406C53.653 88.2082 55.8861 85.725 58.7624 83.9564C61.6386 82.1878 65.0061 81.3034 68.8649 81.3034C72.7238 81.3034 76.0913 82.1878 78.9675 83.9564C81.8438 85.725 84.0769 88.2082 85.6668 91.406C87.2568 94.6038 88.0518 98.3376 88.0518 102.607C88.0518 106.859 87.2568 110.575 85.6668 113.755C84.0769 116.935 81.8438 119.409 78.9675 121.178C76.0913 122.946 72.7238 123.831 68.8649 123.831ZM68.8917 117.105C71.3928 117.105 73.4651 116.444 75.1087 115.122C76.7523 113.8 77.9671 112.04 78.7531 109.843C79.5571 107.645 79.959 105.224 79.959 102.58C79.959 99.9543 79.5571 97.5426 78.7531 95.3452C77.9671 93.13 76.7523 91.3524 75.1087 90.0126C73.4651 88.6727 71.3928 88.0028 68.8917 88.0028C66.3728 88.0028 64.2826 88.6727 62.6212 90.0126C60.9776 91.3524 59.7539 93.13 58.95 95.3452C58.1639 97.5426 57.7709 99.9543 57.7709 102.58C57.7709 105.224 58.1639 107.645 58.95 109.843C59.7539 112.04 60.9776 113.8 62.6212 115.122C64.2826 116.444 66.3728 117.105 68.8917 117.105ZM130.036 81.8394V123H122.212V81.8394H130.036ZM126.633 100.946V107.86C125.4 108.36 124.096 108.806 122.721 109.199C121.345 109.575 119.898 109.869 118.38 110.084C116.861 110.298 115.28 110.405 113.636 110.405C108.545 110.405 104.499 109.164 101.497 106.68C98.496 104.179 96.9954 100.356 96.9954 95.2112V81.759H104.793V95.2112C104.793 97.1585 105.151 98.7395 105.865 99.9543C106.58 101.169 107.598 102.062 108.92 102.634C110.242 103.206 111.814 103.492 113.636 103.492C116.048 103.492 118.272 103.268 120.309 102.822C122.363 102.357 124.472 101.732 126.633 100.946ZM140.695 123V81.8394H148.707V99.0968H152.566L166.152 81.8394H176.067L160.123 101.857L176.255 123H166.313L153.906 106.546H148.707V123H140.695ZM194.457 123.911C191.849 123.911 189.491 123.429 187.383 122.464C185.275 121.481 183.604 120.061 182.371 118.203C181.157 116.345 180.549 114.068 180.549 111.37C180.549 109.048 180.996 107.136 181.889 105.635C182.782 104.135 183.988 102.947 185.507 102.071C187.025 101.196 188.722 100.535 190.598 100.088C192.474 99.6417 194.386 99.3023 196.333 99.07C198.798 98.7842 200.799 98.552 202.335 98.3733C203.872 98.1768 204.988 97.8642 205.685 97.4354C206.382 97.0066 206.73 96.3099 206.73 95.3452V95.1576C206.73 92.8173 206.069 91.0041 204.747 89.7178C203.443 88.4315 201.496 87.7884 198.905 87.7884C196.208 87.7884 194.082 88.3869 192.528 89.5838C190.991 90.7629 189.928 92.0759 189.339 93.523L181.809 91.808C182.702 89.3069 184.006 87.2882 185.721 85.7518C187.454 84.1976 189.446 83.0721 191.697 82.3753C193.948 81.6607 196.315 81.3034 198.798 81.3034C200.442 81.3034 202.184 81.5 204.024 81.893C205.882 82.2681 207.615 82.9649 209.222 83.9832C210.848 85.0015 212.179 86.4575 213.215 88.3511C214.251 90.2269 214.769 92.6655 214.769 95.6668V123H206.945V117.373H206.623C206.105 118.409 205.328 119.427 204.292 120.427C203.255 121.428 201.925 122.259 200.299 122.92C198.673 123.581 196.726 123.911 194.457 123.911ZM196.199 117.48C198.414 117.48 200.308 117.042 201.88 116.167C203.47 115.291 204.676 114.148 205.498 112.737C206.337 111.307 206.757 109.78 206.757 108.154V102.848C206.471 103.134 205.917 103.402 205.096 103.652C204.292 103.885 203.372 104.09 202.335 104.269C201.299 104.429 200.29 104.581 199.307 104.724C198.325 104.849 197.503 104.957 196.842 105.046C195.288 105.242 193.868 105.573 192.581 106.037C191.313 106.502 190.295 107.172 189.526 108.047C188.776 108.905 188.401 110.048 188.401 111.477C188.401 113.46 189.133 114.961 190.598 115.979C192.063 116.98 193.93 117.48 196.199 117.48ZM365.236 138.435V81.8394H373.061V88.5119H373.731C374.195 87.6544 374.865 86.6629 375.741 85.5374C376.616 84.4119 377.831 83.4294 379.385 82.5897C380.939 81.7322 382.994 81.3034 385.548 81.3034C388.871 81.3034 391.837 82.1431 394.445 83.8224C397.053 85.5017 399.099 87.9224 400.582 91.0845C402.082 94.2465 402.833 98.0517 402.833 102.5C402.833 106.948 402.091 110.763 400.608 113.943C399.126 117.105 397.089 119.543 394.499 121.258C391.908 122.955 388.952 123.804 385.629 123.804C383.128 123.804 381.082 123.384 379.492 122.544C377.92 121.705 376.687 120.722 375.794 119.597C374.901 118.471 374.213 117.471 373.731 116.595H373.248V138.435H365.236ZM373.088 102.42C373.088 105.314 373.507 107.851 374.347 110.03C375.187 112.21 376.402 113.916 377.992 115.148C379.582 116.363 381.529 116.971 383.833 116.971C386.227 116.971 388.228 116.336 389.836 115.068C391.444 113.782 392.659 112.04 393.48 109.843C394.32 107.645 394.74 105.171 394.74 102.42C394.74 99.7042 394.329 97.2657 393.507 95.104C392.703 92.9424 391.488 91.2363 389.863 89.9858C388.255 88.7352 386.245 88.11 383.833 88.11C381.511 88.11 379.546 88.7084 377.938 89.9054C376.348 91.1023 375.142 92.7727 374.32 94.9165C373.499 97.0602 373.088 99.5613 373.088 102.42ZM429.148 123.831C425.289 123.831 421.921 122.946 419.045 121.178C416.169 119.409 413.936 116.935 412.346 113.755C410.756 110.575 409.961 106.859 409.961 102.607C409.961 98.3376 410.756 94.6038 412.346 91.406C413.936 88.2082 416.169 85.725 419.045 83.9564C421.921 82.1878 425.289 81.3034 429.148 81.3034C433.006 81.3034 436.374 82.1878 439.25 83.9564C442.126 85.725 444.359 88.2082 445.949 91.406C447.539 94.6038 448.334 98.3376 448.334 102.607C448.334 106.859 447.539 110.575 445.949 113.755C444.359 116.935 442.126 119.409 439.25 121.178C436.374 122.946 433.006 123.831 429.148 123.831ZM429.174 117.105C431.675 117.105 433.748 116.444 435.391 115.122C437.035 113.8 438.25 112.04 439.036 109.843C439.84 107.645 440.242 105.224 440.242 102.58C440.242 99.9543 439.84 97.5426 439.036 95.3452C438.25 93.13 437.035 91.3524 435.391 90.0126C433.748 88.6727 431.675 88.0028 429.174 88.0028C426.655 88.0028 424.565 88.6727 422.904 90.0126C421.26 91.3524 420.036 93.13 419.233 95.3452C418.447 97.5426 418.053 99.9543 418.053 102.58C418.053 105.224 418.447 107.645 419.233 109.843C420.036 112.04 421.26 113.8 422.904 115.122C424.565 116.444 426.655 117.105 429.174 117.105ZM474.616 123.831C470.632 123.831 467.202 122.929 464.326 121.124C461.467 119.302 459.27 116.792 457.734 113.594C456.197 110.396 455.429 106.734 455.429 102.607C455.429 98.4269 456.215 94.7378 457.787 91.54C459.359 88.3243 461.574 85.8143 464.433 84.01C467.291 82.2056 470.659 81.3034 474.535 81.3034C477.662 81.3034 480.449 81.8841 482.896 83.0453C485.344 84.1886 487.318 85.7965 488.818 87.8688C490.337 89.9411 491.239 92.3618 491.525 95.1308H483.727C483.298 93.2014 482.316 91.54 480.779 90.1465C479.261 88.7531 477.224 88.0564 474.669 88.0564C472.436 88.0564 470.48 88.6459 468.801 89.825C467.139 90.9862 465.844 92.6476 464.915 94.8093C463.986 96.9531 463.522 99.4899 463.522 102.42C463.522 105.421 463.977 108.011 464.888 110.191C465.8 112.37 467.086 114.059 468.747 115.256C470.427 116.453 472.401 117.051 474.669 117.051C476.188 117.051 477.564 116.774 478.796 116.22C480.047 115.649 481.092 114.836 481.931 113.782C482.789 112.728 483.387 111.459 483.727 109.977H491.525C491.239 112.638 490.373 115.014 488.926 117.105C487.478 119.195 485.54 120.838 483.111 122.035C480.699 123.232 477.867 123.831 474.616 123.831ZM496.978 88.7531V81.8394H531.707V88.7531H518.282V123H510.457V88.7531H496.978ZM550.244 123.911C547.636 123.911 545.278 123.429 543.17 122.464C541.062 121.481 539.391 120.061 538.159 118.203C536.944 116.345 536.337 114.068 536.337 111.37C536.337 109.048 536.783 107.136 537.676 105.635C538.57 104.135 539.776 102.947 541.294 102.071C542.813 101.196 544.51 100.535 546.386 100.088C548.261 99.6417 550.173 99.3023 552.12 99.07C554.586 98.7842 556.586 98.552 558.123 98.3733C559.659 98.1768 560.776 97.8642 561.472 97.4354C562.169 97.0066 562.518 96.3099 562.518 95.3452V95.1576C562.518 92.8173 561.857 91.0041 560.535 89.7178C559.23 88.4315 557.283 87.7884 554.693 87.7884C551.995 87.7884 549.869 88.3869 548.315 89.5838C546.779 90.7629 545.716 92.0759 545.126 93.523L537.596 91.808C538.489 89.3069 539.793 87.2882 541.508 85.7518C543.241 84.1976 545.233 83.0721 547.484 82.3753C549.735 81.6607 552.102 81.3034 554.586 81.3034C556.229 81.3034 557.971 81.5 559.811 81.893C561.669 82.2681 563.402 82.9649 565.01 83.9832C566.635 85.0015 567.966 86.4575 569.002 88.3511C570.039 90.2269 570.557 92.6655 570.557 95.6668V123H562.732V117.373H562.41C561.892 118.409 561.115 119.427 560.079 120.427C559.043 121.428 557.712 122.259 556.086 122.92C554.46 123.581 552.513 123.911 550.244 123.911ZM551.986 117.48C554.201 117.48 556.095 117.042 557.667 116.167C559.257 115.291 560.463 114.148 561.285 112.737C562.125 111.307 562.544 109.78 562.544 108.154V102.848C562.259 103.134 561.705 103.402 560.883 103.652C560.079 103.885 559.159 104.09 558.123 104.269C557.087 104.429 556.077 104.581 555.095 104.724C554.112 104.849 553.29 104.957 552.629 105.046C551.075 105.242 549.655 105.573 548.369 106.037C547.1 106.502 546.082 107.172 545.314 108.047C544.563 108.905 544.188 110.048 544.188 111.477C544.188 113.46 544.921 114.961 546.386 115.979C547.851 116.98 549.717 117.48 551.986 117.48Z" fill="black"/>
<path d="M238.574 126.008C239.485 126.016 240.608 125.862 240.97 124.959C241.662 123.232 242.501 121.355 243.235 119.645C243.698 118.564 243.447 118.033 242.284 118.01C239.714 117.958 237.141 117.978 234.572 118.059C234.142 118.073 233.55 118.443 233.334 118.821C232.388 120.485 231.486 122.183 230.701 123.93C230.232 124.974 230.667 126.038 232.004 126.016C233.207 125.998 233.513 126.01 234.717 126.01C235.893 126.01 237.396 125.995 238.574 126.007V126.008ZM244.386 114.89C245.054 114.888 245.644 114.714 245.919 114.024C246.555 112.423 247.188 110.821 247.792 109.209C248.118 108.341 247.746 107.808 246.822 107.803C244.524 107.79 242.227 107.803 239.931 107.805C239.258 107.805 238.668 108.019 238.35 108.645C237.62 110.087 236.891 111.533 236.235 113.012C235.714 114.185 236.206 114.874 237.495 114.888C238.617 114.902 239.738 114.892 240.858 114.892C242.034 114.892 243.21 114.895 244.386 114.892V114.89ZM248.7 105.104C249.371 105.118 249.802 104.82 250.017 104.207C250.453 102.967 250.885 101.725 251.282 100.473C251.576 99.5486 251.198 98.9958 250.252 98.9858C248.06 98.9642 245.866 98.9427 243.675 99.0124C243.272 99.0257 242.699 99.3726 242.521 99.7279C241.907 100.946 241.315 102.203 240.944 103.511C240.664 104.493 240.712 105.195 242.123 105.11C243.189 105.045 244.259 105.097 245.328 105.097C246.452 105.097 247.576 105.079 248.7 105.104Z" fill="url(#paint0_linear_1751_19433)"/>
<path d="M256.082 53.1377C258.09 54.3563 260.253 55.52 262.258 56.9162C266.874 60.132 270.731 64.0948 273.38 69.1516C273.793 69.9402 274.148 70.7603 274.561 71.5505C274.841 72.0867 274.771 72.4072 274.143 72.5532C271.796 73.0994 269.471 73.7685 267.101 74.1752C265.372 74.4724 263.578 74.6019 261.83 74.5089C256.651 74.2366 252.076 72.3823 248.15 68.8992C244.168 65.3664 242.06 60.7827 240.677 55.7575C239.702 52.2114 238.723 48.6653 237.713 45.1291C237.491 44.3522 237.097 43.625 236.848 42.8531C236.496 41.754 236.986 41.241 238.103 41.5C241.215 42.2205 244.374 42.4845 247.551 42.3135C249.571 42.2039 251.577 41.8653 253.594 41.6843C259.082 41.1912 264.458 41.5067 269.461 44.1662C273.568 46.351 276.76 49.4854 278.791 53.7204C279.922 56.0795 280.618 58.5847 280.641 61.2393C280.649 62.2437 280.736 63.258 280.62 64.2475C280.46 65.5989 281.032 66.6215 281.769 67.6276C284.23 70.9844 286.114 74.6534 287.544 78.5647C287.874 79.4678 288.191 80.3776 288.581 81.4666C289.723 77.3113 291.313 73.5477 293.217 69.9219C293.895 68.6303 294.796 67.4499 295.392 66.1251C295.892 65.0161 296.275 63.7909 296.396 62.584C296.767 58.9151 297.61 55.3939 299.043 51.9989C300.681 48.1191 303.098 44.8087 306.123 41.9466C308.69 39.5178 311.647 37.6966 314.963 36.4781C318.135 35.3126 321.393 34.5988 324.776 34.5191C327.1 34.4643 329.425 34.3697 331.749 34.3813C333.525 34.3896 335.3 34.6104 337.076 34.6054C340.377 34.5954 343.692 34.6054 346.817 33.2457C347.593 32.9071 348.171 33.2839 348.042 34.1439C347.827 35.5849 347.473 37.0093 347.115 38.4238C346.023 42.7402 344.906 47.0499 343.791 51.3597C342.526 56.2538 340.818 60.9637 337.788 65.0543C335.075 68.7183 331.665 71.5953 327.539 73.5261C324.758 74.8277 321.873 75.7972 318.772 76.0545C315.153 76.355 311.562 76.3467 308.037 75.3988C306.052 74.8642 304.103 74.1868 302.148 73.5427C301.378 73.2887 301.092 72.701 301.501 72.0154C302.776 69.8854 304.004 67.7089 305.473 65.7184C307.116 63.4905 308.922 61.3688 310.812 59.3484C312.288 57.7712 313.945 56.3468 315.622 54.9822C318.846 52.3624 322.46 50.3719 326.185 48.5823C326.542 48.4113 326.904 48.2469 327.215 47.9199C325.602 48.3067 323.983 48.6736 322.377 49.082C318.101 50.1644 314.403 52.4039 310.925 55.0419C309.845 55.862 308.889 56.8498 307.874 57.7596C304.73 60.5785 302.097 63.8358 299.931 67.4582C296.982 72.3906 294.413 77.5038 293.476 83.2729C293.119 85.4709 292.739 87.6906 292.678 89.9085C292.52 95.7606 292.514 101.616 292.487 107.471C292.479 109.151 291.898 110.411 290.315 111.064C288.731 111.716 287.279 111.492 285.999 110.302C285.211 109.568 285.014 108.618 285.014 107.602C285.014 105.472 285.057 103.343 285.04 101.211C285.016 97.8922 285.067 94.5686 284.887 91.2582C284.634 86.5882 283.958 81.9796 282.304 77.5603C280.868 73.7253 278.931 70.1759 276.452 66.9436C275.25 65.3764 273.956 63.8657 272.573 62.4578C268.501 58.3157 263.725 55.3275 258.111 53.7769C257.396 53.5793 256.694 53.3336 256.077 53.1377H256.082ZM290.56 31.5789C288.149 37.079 287.534 42.9327 287.251 48.8363C287.025 53.5428 287.728 58.1929 288.43 62.8281C288.58 63.8192 289.025 64.7638 289.335 65.73C289.466 65.7134 289.596 65.6951 289.728 65.6785C289.8 64.1827 289.945 62.6869 289.927 61.1928C289.897 58.6245 289.663 56.0546 289.705 53.488C289.747 50.6774 290.683 48.1573 292.736 46.1518C294.013 44.9033 295.339 43.7014 296.581 42.4164C298.16 40.7845 299.135 38.7658 299.516 36.5594C299.83 34.7432 299.975 32.8473 299.832 31.0161C299.681 29.0754 299.225 27.133 298.681 25.2554C297.993 22.8781 297.038 20.5821 296.288 18.2213C295.827 16.7687 295.334 16.4765 294.004 17.1605C293.837 17.2468 293.683 17.3564 293.527 17.461C291.818 18.6131 290.091 19.7354 288.407 20.9241C285.93 22.6739 283.656 24.6694 281.932 27.1945C278.737 31.8778 278.164 36.8134 280.871 41.94C281.735 43.5752 283.067 44.8203 284.493 46.0505C285.649 39.7967 287.111 33.7919 291.469 28.9891C291.17 29.8524 290.926 30.7422 290.56 31.5773V31.5789Z" fill="url(#paint1_linear_1751_19433)"/>
<path d="M336.269 117.941C335.039 117.83 334.514 118.655 335.055 119.845C335.81 121.507 336.479 123.207 337.19 124.889C337.504 125.634 338.085 125.936 338.867 125.935C341.357 125.928 343.846 125.938 346.336 125.93C347.597 125.925 348.176 124.919 347.594 123.773C346.727 122.065 345.892 120.34 344.967 118.665C344.785 118.335 344.275 118.021 343.898 117.998C342.591 117.916 341.273 117.966 339.961 117.966C338.729 117.966 337.491 118.052 336.271 117.941H336.269ZM340.956 114.808C342.198 114.798 342.703 113.937 342.139 112.816C341.51 111.566 340.821 110.341 340.275 109.054C339.869 108.096 339.233 107.733 338.252 107.741C336.088 107.761 333.924 107.739 331.761 107.748C330.482 107.753 330.218 108.15 330.685 109.398C331.25 110.905 331.843 112.403 332.424 113.904C332.671 114.541 333.113 114.835 333.809 114.818C334.986 114.79 336.164 114.81 337.343 114.81C338.548 114.81 339.754 114.818 340.959 114.808H340.956ZM327.587 98.8759C326.684 98.8826 326.4 99.271 326.704 100.131C327.204 101.542 327.735 102.943 328.246 104.351C328.445 104.899 328.788 105.193 329.401 105.188C331.73 105.173 334.059 105.196 336.387 105.175C337.44 105.165 337.897 104.416 337.47 103.45C336.927 102.228 336.358 101.019 335.807 99.8006C335.516 99.1532 335.037 98.8543 334.327 98.8676C333.231 98.8892 332.134 98.8742 331.039 98.8742C329.888 98.8742 328.738 98.8693 327.587 98.8759Z" fill="url(#paint2_linear_1751_19433)"/>
<path d="M263.889 135.965C260.87 135.965 257.941 135.979 255.013 135.959C254.007 135.952 252.977 135.98 252.001 135.78C249.4 135.245 247.6 133.709 246.871 131.078C246.669 130.349 246.614 129.559 246.611 128.797C246.606 126.977 246.417 125.105 246.779 123.352C247.177 121.426 248.078 119.6 248.808 117.75C251.634 110.595 254.507 103.458 257.304 96.291C258.38 93.5368 260.947 91.6409 263.891 91.6393C265.975 91.6393 268.059 91.5961 270.139 91.6609C270.953 91.6858 271.277 91.3355 271.425 90.6266C271.637 89.6122 271.877 88.6045 272.075 87.5885C272.21 86.8962 272.589 86.6356 273.28 86.6488C274.787 86.6787 276.296 86.6887 277.801 86.6455C278.578 86.6223 278.824 87.0091 278.828 87.6881C278.834 88.9266 278.829 90.1634 278.829 91.4384C279.663 91.5098 280.421 91.6243 281.178 91.6243C281.896 91.6243 282.148 91.9132 282.128 92.6188C282.094 93.8357 282.081 95.0542 282.133 96.2695C282.166 97.0215 281.781 97.3419 281.158 97.4332C280.457 97.5362 279.745 97.5959 279.036 97.6009C276.487 97.6208 273.938 97.6109 271.389 97.6142C269.1 97.6158 267.526 98.7862 266.87 100.964C265.477 105.58 264.079 110.192 262.689 114.808C262.564 115.225 262.434 115.652 262.391 116.082C262.176 118.293 262.913 119.02 265.108 119.664C265.699 119.839 266.351 119.854 266.975 119.854C281.831 119.864 296.685 119.872 311.541 119.839C312.549 119.837 313.639 119.698 314.549 119.294C316.147 118.585 316.542 117.196 315.886 114.981C314.624 110.728 313.292 106.494 311.991 102.253C311.84 101.758 311.7 101.262 311.554 100.765C310.983 98.8344 309.375 97.6175 307.371 97.6142C303.972 97.6092 300.574 97.6142 297.175 97.6075C295.716 97.6042 295.604 97.4814 295.604 95.9988C295.604 94.9197 295.599 93.8406 295.604 92.7615C295.609 91.8684 295.82 91.6592 296.721 91.6376C297.515 91.6177 298.308 91.6044 299.102 91.5845C299.676 91.5695 299.916 91.2956 299.89 90.693C299.849 89.7268 299.882 88.7572 299.879 87.7877C299.877 87.0406 300.235 86.6588 300.98 86.6571C302.489 86.6571 303.995 86.6405 305.503 86.6638C306.408 86.6771 306.778 87.0274 306.947 87.9205C307.108 88.7805 307.357 89.6355 307.406 90.5004C307.46 91.45 307.97 91.6426 308.748 91.6393C310.666 91.631 312.585 91.6708 314.503 91.6293C317.321 91.5695 320.078 93.5551 321.104 96.1599C322.816 100.505 324.538 104.846 326.28 109.179C327.916 113.251 329.625 117.297 331.209 121.389C331.603 122.407 331.751 123.559 331.817 124.661C331.906 126.147 331.842 127.577 331.85 129.071C331.87 133.213 328.612 135.871 325 135.947C321.604 136.02 318.205 135.962 314.703 135.962C315.215 137.559 315.698 139.105 316.206 140.64C316.78 142.379 317.438 144.092 317.937 145.852C318.145 146.592 318.104 147.426 318.061 148.211C318.02 148.961 317.412 149.209 316.77 149.215C314.195 149.238 311.618 149.248 309.042 149.215C308.191 149.205 307.659 148.729 307.441 147.842C306.531 144.132 305.571 140.436 304.674 136.722C304.53 136.122 304.316 135.937 303.709 135.946C300.831 135.979 297.953 135.96 295.075 135.96H294.244C294.34 137.833 294.42 139.618 294.527 141.399C294.578 142.249 294.729 143.092 294.756 143.942C294.798 145.34 294.779 146.742 294.78 148.141C294.78 148.941 294.223 149.209 293.59 149.215C290.739 149.245 287.889 149.247 285.039 149.217C284.001 149.207 283.574 148.755 283.622 147.723C283.75 144.894 283.941 142.067 284.072 139.238C284.122 138.173 284.08 137.106 284.08 135.989C284.034 135.985 283.876 135.962 283.717 135.962C280.646 135.96 277.578 135.969 274.507 135.951C274.01 135.947 273.826 136.073 273.709 136.61C272.902 140.315 272.048 144.009 271.185 147.701C270.914 148.858 270.401 149.225 269.188 149.228C266.804 149.235 264.419 149.237 262.034 149.228C260.924 149.223 260.599 148.976 260.526 147.857C260.48 147.14 260.521 146.37 260.732 145.691C261.735 142.462 262.809 139.254 263.885 135.96L263.889 135.965ZM336.527 117.184C335.297 117.073 334.772 117.898 335.314 119.088C336.068 120.75 336.738 122.45 337.448 124.132C337.762 124.877 338.343 125.179 339.126 125.178C341.616 125.171 344.104 125.181 346.594 125.173C347.855 125.168 348.434 124.162 347.852 123.016C346.985 121.308 346.15 119.583 345.226 117.908C345.043 117.578 344.533 117.264 344.157 117.241C342.849 117.159 341.532 117.209 340.219 117.209C338.988 117.209 337.749 117.295 336.529 117.184H336.527ZM238.395 125.158C239.306 125.166 240.429 125.012 240.791 124.109C241.483 122.382 242.322 120.504 243.055 118.794C243.519 117.714 243.268 117.182 242.105 117.159C239.534 117.108 236.962 117.128 234.393 117.209C233.962 117.222 233.37 117.592 233.155 117.971C232.209 119.634 231.306 121.333 230.522 123.079C230.053 124.124 230.487 125.188 231.824 125.166C233.028 125.148 233.334 125.159 234.538 125.159C235.714 125.159 237.217 125.145 238.395 125.156V125.158ZM341.214 114.051C342.456 114.041 342.961 113.18 342.397 112.059C341.769 110.809 341.08 109.584 340.534 108.297C340.127 107.339 339.491 106.976 338.511 106.984C336.346 107.004 334.182 106.982 332.019 106.991C330.74 106.996 330.477 107.393 330.944 108.641C331.508 110.148 332.102 111.646 332.682 113.147C332.929 113.784 333.371 114.078 334.067 114.061C335.244 114.033 336.422 114.053 337.601 114.053C338.807 114.053 340.012 114.061 341.218 114.051H341.214ZM244.207 114.04C244.874 114.038 245.465 113.864 245.739 113.173C246.376 111.573 247.009 109.971 247.613 108.359C247.938 107.49 247.567 106.958 246.642 106.953C244.345 106.939 242.047 106.953 239.751 106.954C239.079 106.954 238.488 107.168 238.171 107.794C237.441 109.237 236.712 110.683 236.056 112.162C235.535 113.334 236.026 114.023 237.316 114.038C238.437 114.051 239.559 114.041 240.679 114.041C241.855 114.041 243.031 114.045 244.207 114.041V114.04ZM327.845 98.1189C326.942 98.1255 326.658 98.514 326.962 99.3739C327.462 100.785 327.993 102.186 328.505 103.594C328.704 104.142 329.046 104.436 329.659 104.431C331.988 104.416 334.317 104.439 336.646 104.418C337.698 104.408 338.155 103.659 337.728 102.693C337.185 101.471 336.616 100.262 336.065 99.0436C335.774 98.3961 335.295 98.0973 334.585 98.1106C333.49 98.1321 332.393 98.1172 331.297 98.1172C330.146 98.1172 328.997 98.1122 327.845 98.1189ZM248.521 104.253C249.192 104.268 249.622 103.969 249.838 103.357C250.274 102.117 250.706 100.875 251.103 99.623C251.397 98.6983 251.019 98.1454 250.073 98.1355C247.881 98.1139 245.687 98.0923 243.496 98.162C243.093 98.1753 242.519 98.5223 242.342 98.8776C241.728 100.096 241.136 101.353 240.765 102.661C240.485 103.642 240.533 104.344 241.944 104.26C243.009 104.195 244.08 104.247 245.149 104.247C246.272 104.247 247.397 104.228 248.521 104.253Z" fill="url(#paint3_linear_1751_19433)"/>
<path d="M331.842 129.888C331.842 130.039 331.827 130.19 331.794 130.337C331.651 130.998 331.181 132.841 329.651 134.171C328.293 135.351 326.643 135.952 324.895 135.952L254.42 135.947C253.917 135.947 252.436 135.911 251.854 135.786C251.854 135.786 251.048 135.633 249.756 134.951C248.614 134.348 247.884 133.364 247.06 131.979C246.84 131.609 246.682 131.204 246.587 130.782L246.564 130.679C246.564 130.679 246.559 127.074 246.559 125.971C246.559 124.869 246.664 124.044 246.664 124.044C246.664 124.044 247.407 125.674 248.026 126.365C248.644 127.055 249.07 127.547 250.471 128.236C251.152 128.571 252.043 128.789 252.866 128.9C253.688 129.011 254.481 129.006 254.912 129.008C261.928 129.013 323.402 129.054 325.309 129.008C327.332 128.958 328.872 128.211 329.5 127.63C331.661 125.636 331.549 123.886 331.715 123.518" fill="url(#paint4_linear_1751_19433)"/>
<path d="M260.546 146.852C260.546 146.852 260.518 147.375 261.011 147.375C261.504 147.375 269.094 147.375 269.612 147.375C270.13 147.375 270.887 146.852 270.887 146.852L270.783 148.661C270.783 148.661 270.724 149.189 269.683 149.207C268.838 149.222 262.351 149.207 261.541 149.207C260.59 149.207 260.523 148.191 260.523 148.191C260.523 148.191 260.513 147.643 260.513 147.326C260.513 147.009 260.544 146.852 260.544 146.852H260.546Z" fill="url(#paint5_linear_1751_19433)"/>
<path d="M283.692 146.852C283.692 146.852 283.664 147.375 284.158 147.375C284.651 147.375 292.241 147.391 292.759 147.375C294.708 147.313 294.767 146.852 294.767 146.852C294.767 146.852 294.807 147.919 294.807 148.21C294.807 148.935 294.404 149.202 293.187 149.246C292.341 149.275 285.5 149.207 284.69 149.207C283.74 149.207 283.672 148.191 283.672 148.191C283.672 148.191 283.663 147.643 283.663 147.326C283.663 147.009 283.694 146.852 283.694 146.852H283.692Z" fill="url(#paint6_linear_1751_19433)"/>
<path d="M307.701 146.831C307.701 146.831 307.786 147.372 308.206 147.372C308.699 147.372 316.289 147.382 316.807 147.372C318.04 147.347 318.072 146.582 318.072 146.582C318.072 146.582 318.105 147.812 318.105 148.103C318.105 148.85 317.812 149.283 315.939 149.243C315.093 149.225 309.978 149.238 309.168 149.243C307.985 149.252 307.669 148.441 307.669 148.441C307.669 148.441 307.707 147.643 307.707 147.324C307.707 147.005 307.699 146.831 307.699 146.831H307.701Z" fill="url(#paint7_linear_1751_19433)"/>
<g clip-path="url(#clip0_1751_19433)">
<path d="M506.908 76.9952L509.336 83.8816H509.432L511.861 76.9952H512.899L509.895 85.1758H508.873L505.869 76.9952H506.908Z" fill="white" fill-opacity="0.2"/>
</g>
<defs>
<linearGradient id="paint0_linear_1751_19433" x1="258.482" y1="87.9408" x2="231.711" y2="126.284" gradientUnits="userSpaceOnUse">
<stop stop-color="#008EBE"/>
<stop offset="0.43" stop-color="#0078BE"/>
<stop offset="0.98" stop-color="#0058BF"/>
</linearGradient>
<linearGradient id="paint1_linear_1751_19433" x1="309.618" y1="11.589" x2="255.64" y2="111.761" gradientUnits="userSpaceOnUse">
<stop stop-color="#00C742"/>
<stop offset="0.29" stop-color="#00B36C"/>
<stop offset="0.93" stop-color="#0082D6"/>
<stop offset="1" stop-color="#007DE3"/>
</linearGradient>
<linearGradient id="paint2_linear_1751_19433" x1="337.16" y1="100.649" x2="337.241" y2="122.083" gradientUnits="userSpaceOnUse">
<stop stop-color="#308E76"/>
<stop offset="1" stop-color="#307B80"/>
</linearGradient>
<linearGradient id="paint3_linear_1751_19433" x1="333.698" y1="55.4047" x2="265.868" y2="152.556" gradientUnits="userSpaceOnUse">
<stop stop-color="#00C742"/>
<stop offset="0.15" stop-color="#00BD57"/>
<stop offset="0.45" stop-color="#00A38E"/>
<stop offset="0.88" stop-color="#007DE3"/>
</linearGradient>
<linearGradient id="paint4_linear_1751_19433" x1="321.627" y1="113.1" x2="254.632" y2="144.832" gradientUnits="userSpaceOnUse">
<stop offset="0.02" stop-color="#00B0A8"/>
<stop offset="0.05" stop-color="#00A6AA"/>
<stop offset="0.15" stop-color="#0089B1"/>
<stop offset="0.26" stop-color="#0073B7"/>
<stop offset="0.38" stop-color="#0064BB"/>
<stop offset="0.52" stop-color="#005ABE"/>
<stop offset="0.71" stop-color="#0058BF"/>
</linearGradient>
<linearGradient id="paint5_linear_1751_19433" x1="274.204" y1="143.747" x2="265.829" y2="147.715" gradientUnits="userSpaceOnUse">
<stop offset="0.02" stop-color="#00B0A8"/>
<stop offset="0.05" stop-color="#00A6AA"/>
<stop offset="0.15" stop-color="#0089B1"/>
<stop offset="0.26" stop-color="#0073B7"/>
<stop offset="0.38" stop-color="#0064BB"/>
<stop offset="0.52" stop-color="#005ABE"/>
<stop offset="0.71" stop-color="#0058BF"/>
</linearGradient>
<linearGradient id="paint6_linear_1751_19433" x1="298.272" y1="143.481" x2="289.343" y2="147.709" gradientUnits="userSpaceOnUse">
<stop offset="0.02" stop-color="#00B0A8"/>
<stop offset="0.05" stop-color="#00A6AA"/>
<stop offset="0.15" stop-color="#0089B1"/>
<stop offset="0.26" stop-color="#0073B7"/>
<stop offset="0.38" stop-color="#0064BB"/>
<stop offset="0.52" stop-color="#005ABE"/>
<stop offset="0.71" stop-color="#0058BF"/>
</linearGradient>
<linearGradient id="paint7_linear_1751_19433" x1="321.548" y1="143.64" x2="313.026" y2="147.677" gradientUnits="userSpaceOnUse">
<stop offset="0.02" stop-color="#00B0A8"/>
<stop offset="0.05" stop-color="#00A6AA"/>
<stop offset="0.15" stop-color="#0089B1"/>
<stop offset="0.26" stop-color="#0073B7"/>
<stop offset="0.38" stop-color="#0064BB"/>
<stop offset="0.52" stop-color="#005ABE"/>
<stop offset="0.71" stop-color="#0058BF"/>
</linearGradient>
<clipPath id="clip0_1751_19433">
<rect width="16.5527" height="8.87673" fill="white" transform="translate(500.986 75.959)"/>
</clipPath>
</defs>
</svg>
