<svg width="342" height="342" viewBox="0 0 342 342" fill="none" xmlns="http://www.w3.org/2000/svg">
<mask id="mask0_2039_3308" style="mask-type:alpha" maskUnits="userSpaceOnUse" x="0" y="0" width="342" height="342">
<path d="M64.5258 253.495C66.3761 253.511 68.6572 253.201 69.3919 251.384C70.798 247.91 72.5013 244.133 73.9909 240.693C74.9327 238.519 74.4217 237.45 72.0605 237.403C66.8403 237.3 61.6168 237.34 56.3999 237.504C55.5249 237.53 54.3226 238.275 53.885 239.037C51.9646 242.383 50.1311 245.8 48.538 249.313C47.5861 251.414 48.4678 253.555 51.1831 253.511C53.6279 253.475 54.2491 253.498 56.6939 253.498C59.0818 253.498 62.1345 253.468 64.5258 253.491V253.495ZM76.3288 231.128C77.6848 231.124 78.8838 230.774 79.4415 229.384C80.734 226.165 82.0199 222.942 83.2456 219.699C83.9069 217.952 83.1521 216.88 81.2751 216.87C76.6093 216.843 71.9436 216.87 67.2812 216.873C65.9152 216.873 64.7162 217.304 64.0716 218.563C62.5887 221.466 61.1091 224.375 59.7765 227.35C58.7178 229.708 59.7164 231.094 62.3349 231.124C64.6126 231.151 66.8904 231.131 69.1648 231.131C71.5528 231.131 73.9408 231.138 76.3288 231.131V231.128ZM85.0892 211.439C86.4519 211.469 87.3269 210.868 87.7644 209.636C88.6495 207.141 89.5279 204.643 90.3328 202.125C90.9306 200.264 90.1624 199.152 88.242 199.132C83.79 199.089 79.3347 199.045 74.886 199.186C74.0677 199.212 72.9021 199.91 72.5414 200.625C71.2957 203.076 70.0933 205.605 69.3385 208.236C68.7707 210.21 68.8676 211.623 71.7332 211.453C73.8974 211.322 76.0716 211.426 78.2425 211.426C80.5236 211.426 82.8081 211.389 85.0892 211.439Z" fill="url(#paint0_linear_2039_3308)"/>
<path d="M100.082 106.898C104.16 109.35 108.552 111.691 112.623 114.5C121.998 120.969 129.83 128.941 135.21 139.114C136.049 140.701 136.77 142.351 137.608 143.94C138.176 145.019 138.036 145.664 136.76 145.958C131.994 147.056 127.271 148.402 122.459 149.221C118.949 149.818 115.305 150.079 111.754 149.892C101.237 149.344 91.9459 145.614 83.9737 138.607C75.8879 131.499 71.6062 122.278 68.7974 112.168C66.8169 105.035 64.8297 97.9006 62.779 90.7868C62.3282 89.2237 61.5266 87.7609 61.0223 86.2078C60.3076 83.9969 61.3028 82.9648 63.5706 83.4859C69.8896 84.9354 76.3054 85.4664 82.758 85.1224C86.8593 84.902 90.9339 84.2206 95.0286 83.8566C106.174 82.8647 117.092 83.4992 127.251 88.8497C135.591 93.2449 142.074 99.5505 146.198 108.07C148.496 112.816 149.909 117.856 149.956 123.197C149.972 125.217 150.149 127.258 149.912 129.248C149.588 131.967 150.751 134.024 152.247 136.048C157.243 142.801 161.071 150.183 163.973 158.051C164.644 159.868 165.289 161.698 166.08 163.889C168.398 155.53 171.628 147.958 175.495 140.664C176.871 138.066 178.702 135.691 179.911 133.026C180.926 130.795 181.704 128.33 181.951 125.902C182.703 118.521 184.416 111.437 187.325 104.607C190.652 96.8018 195.561 90.1422 201.703 84.3843C206.917 79.4981 212.922 75.8343 219.655 73.3828C226.097 71.0383 232.714 69.6021 239.584 69.4418C244.303 69.3316 249.025 69.1412 253.745 69.1646C257.352 69.1813 260.955 69.6255 264.562 69.6155C271.265 69.5954 277.999 69.6155 284.344 66.8802C285.921 66.1988 287.093 66.957 286.832 68.687C286.395 71.586 285.677 74.4516 284.949 77.2971C282.731 85.9807 280.463 94.651 278.199 103.321C275.631 113.167 272.161 122.642 266.009 130.872C260.498 138.243 253.574 144.031 245.195 147.915C239.547 150.533 233.689 152.484 227.39 153.001C220.042 153.606 212.748 153.589 205.591 151.682C201.56 150.607 197.602 149.244 193.631 147.948C192.068 147.437 191.487 146.255 192.318 144.876C194.907 140.591 197.401 136.212 200.384 132.207C203.72 127.725 207.388 123.457 211.225 119.393C214.224 116.22 217.587 113.354 220.994 110.609C227.54 105.338 234.881 101.334 242.446 97.7336C243.171 97.3896 243.905 97.059 244.537 96.401C241.26 97.1792 237.974 97.9173 234.711 98.7389C226.027 100.917 218.519 105.422 211.456 110.729C209.261 112.379 207.321 114.366 205.26 116.196C198.874 121.867 193.527 128.42 189.129 135.708C183.14 145.63 177.923 155.917 176.02 167.523C175.295 171.945 174.524 176.41 174.4 180.872C174.079 192.645 174.066 204.425 174.013 216.205C173.996 219.584 172.817 222.119 169.601 223.432C166.384 224.745 163.435 224.294 160.837 221.899C159.237 220.423 158.836 218.512 158.836 216.468C158.836 212.183 158.923 207.898 158.89 203.61C158.84 196.934 158.943 190.247 158.579 183.588C158.065 174.193 156.692 164.921 153.332 156.031C150.417 148.316 146.482 141.175 141.449 134.672C139.008 131.519 136.379 128.48 133.57 125.648C125.301 117.315 115.602 111.303 104.203 108.184C102.75 107.787 101.324 107.292 100.072 106.898H100.082ZM170.098 63.527C165.202 74.5919 163.953 86.3681 163.378 98.2446C162.921 107.713 164.347 117.068 165.773 126.393C166.077 128.387 166.982 130.287 167.61 132.231C167.877 132.197 168.141 132.161 168.408 132.127C168.555 129.118 168.849 126.109 168.812 123.103C168.752 117.936 168.278 112.766 168.362 107.603C168.448 101.949 170.349 96.8786 174.517 92.8441C177.112 90.3325 179.804 87.9145 182.325 85.3295C185.532 82.0464 187.512 77.9851 188.287 73.5465C188.925 69.8927 189.219 66.0786 188.928 62.3947C188.621 58.4905 187.696 54.5829 186.59 50.8055C185.194 46.0228 183.254 41.4038 181.731 36.6546C180.796 33.7322 179.794 33.1444 177.092 34.5204C176.755 34.6941 176.441 34.9145 176.123 35.1249C172.653 37.4428 169.146 39.7005 165.726 42.0918C160.697 45.612 156.078 49.6265 152.577 54.7064C146.088 64.1281 144.926 74.0575 150.423 84.3709C152.177 87.6607 154.882 90.1656 157.778 92.6404C160.125 80.0592 163.095 67.979 171.945 58.3168C171.337 60.0535 170.843 61.8437 170.098 63.5236V63.527Z" fill="url(#paint1_linear_2039_3308)"/>
<path d="M262.922 237.269C260.424 237.045 259.359 238.705 260.458 241.1C261.991 244.443 263.35 247.863 264.793 251.246C265.431 252.746 266.61 253.353 268.199 253.35C273.256 253.337 278.309 253.357 283.366 253.34C285.927 253.33 287.103 251.306 285.921 249.002C284.161 245.565 282.464 242.095 280.587 238.725C280.216 238.06 279.181 237.429 278.416 237.382C275.761 237.219 273.086 237.319 270.42 237.319C267.919 237.319 265.404 237.493 262.926 237.269H262.922ZM272.441 230.967C274.963 230.946 275.988 229.213 274.842 226.959C273.567 224.444 272.167 221.979 271.058 219.391C270.233 217.464 268.941 216.732 266.95 216.749C262.555 216.789 258.16 216.745 253.768 216.762C251.17 216.772 250.635 217.57 251.584 220.082C252.729 223.115 253.935 226.127 255.114 229.146C255.615 230.429 256.513 231.02 257.926 230.987C260.317 230.93 262.709 230.97 265.103 230.97C267.552 230.97 270 230.987 272.448 230.967H272.441ZM245.291 198.914C243.458 198.927 242.88 199.709 243.498 201.439C244.513 204.278 245.592 207.097 246.631 209.929C247.035 211.031 247.73 211.622 248.975 211.612C253.705 211.582 258.434 211.629 263.163 211.585C265.3 211.565 266.229 210.059 265.361 208.115C264.258 205.657 263.103 203.226 261.984 200.774C261.393 199.472 260.421 198.871 258.978 198.897C256.754 198.941 254.526 198.911 252.302 198.911C249.964 198.911 247.629 198.901 245.291 198.914Z" fill="url(#paint2_linear_2039_3308)"/>
<path d="M115.936 273.529C109.804 273.529 103.856 273.555 97.9108 273.515C95.8669 273.502 93.7761 273.559 91.7922 273.155C86.5119 272.079 82.8548 268.99 81.3753 263.696C80.9645 262.23 80.8543 260.64 80.8476 259.107C80.8376 255.447 80.4535 251.679 81.1882 248.153C81.9965 244.278 83.8267 240.605 85.3096 236.884C91.0475 222.489 96.8822 208.131 102.563 193.713C104.747 188.172 109.961 184.358 115.939 184.355C120.171 184.355 124.402 184.268 128.627 184.398C130.281 184.448 130.939 183.744 131.239 182.318C131.67 180.277 132.158 178.25 132.558 176.206C132.832 174.813 133.604 174.289 135.006 174.315C138.066 174.375 141.132 174.395 144.188 174.309C145.764 174.262 146.265 175.04 146.272 176.406C146.285 178.898 146.275 181.386 146.275 183.951C147.968 184.094 149.508 184.325 151.044 184.325C152.504 184.325 153.015 184.906 152.975 186.325C152.905 188.774 152.878 191.225 152.985 193.67C153.052 195.183 152.27 195.827 151.004 196.011C149.582 196.218 148.135 196.338 146.696 196.348C141.519 196.388 136.342 196.368 131.166 196.375C126.517 196.378 123.32 198.733 121.988 203.115C119.159 212.4 116.32 221.678 113.498 230.966C113.244 231.804 112.98 232.662 112.893 233.527C112.456 237.976 113.952 239.439 118.411 240.735C119.61 241.085 120.936 241.116 122.202 241.116C152.37 241.136 182.536 241.152 212.705 241.085C214.752 241.082 216.966 240.802 218.813 239.99C222.059 238.564 222.861 235.768 221.528 231.313C218.967 222.756 216.262 214.24 213.62 205.707C213.312 204.711 213.029 203.713 212.731 202.714C211.572 198.83 208.306 196.382 204.238 196.375C197.335 196.365 190.435 196.375 183.531 196.362C180.569 196.355 180.342 196.108 180.342 193.125C180.342 190.954 180.331 188.784 180.342 186.613C180.352 184.816 180.779 184.395 182.609 184.352C184.222 184.311 185.832 184.285 187.445 184.245C188.611 184.215 189.099 183.664 189.045 182.451C188.962 180.507 189.028 178.557 189.022 176.606C189.018 175.104 189.747 174.335 191.259 174.332C194.322 174.332 197.381 174.299 200.444 174.345C202.281 174.372 203.032 175.077 203.376 176.874C203.704 178.604 204.208 180.324 204.308 182.064C204.418 183.974 205.454 184.362 207.034 184.355C210.928 184.338 214.825 184.418 218.72 184.335C224.444 184.215 230.042 188.209 232.126 193.449C235.603 202.19 239.099 210.923 242.636 219.64C245.959 227.833 249.43 235.972 252.646 244.205C253.447 246.252 253.748 248.57 253.882 250.788C254.062 253.777 253.932 256.652 253.948 259.658C253.988 267.991 247.372 273.338 240.038 273.492C233.141 273.639 226.238 273.522 219.127 273.522C220.166 276.735 221.148 279.844 222.18 282.934C223.345 286.431 224.681 289.877 225.693 293.417C226.117 294.907 226.034 296.584 225.947 298.163C225.864 299.673 224.628 300.171 223.325 300.184C218.095 300.231 212.862 300.251 207.631 300.184C205.901 300.164 204.823 299.205 204.378 297.422C202.531 289.957 200.581 282.523 198.761 275.052C198.467 273.843 198.033 273.472 196.8 273.489C190.956 273.555 185.111 273.519 179.266 273.519H177.579C177.773 277.286 177.937 280.876 178.154 284.46C178.257 286.17 178.565 287.867 178.618 289.577C178.705 292.389 178.665 295.208 178.668 298.023C178.668 299.633 177.536 300.171 176.25 300.184C170.462 300.244 164.674 300.247 158.886 300.187C156.779 300.167 155.911 299.259 156.007 297.181C156.268 291.49 156.655 285.803 156.923 280.112C157.023 277.971 156.939 275.823 156.939 273.575C156.846 273.569 156.525 273.522 156.201 273.522C149.966 273.519 143.733 273.535 137.498 273.499C136.489 273.492 136.115 273.746 135.878 274.825C134.238 282.279 132.505 289.71 130.752 297.138C130.2 299.466 129.158 300.204 126.697 300.211C121.854 300.224 117.011 300.227 112.169 300.211C109.914 300.201 109.253 299.703 109.106 297.452C109.012 296.009 109.096 294.46 109.523 293.094C111.561 286.598 113.742 280.145 115.926 273.519L115.936 273.529ZM263.447 235.745C260.949 235.521 259.883 237.181 260.982 239.576C262.515 242.919 263.874 246.339 265.317 249.722C265.955 251.222 267.134 251.83 268.724 251.826C273.78 251.813 278.834 251.833 283.89 251.816C286.452 251.806 287.627 249.782 286.445 247.478C284.685 244.041 282.988 240.571 281.111 237.201C280.741 236.537 279.705 235.905 278.94 235.859C276.285 235.695 273.61 235.795 270.945 235.795C268.443 235.795 265.928 235.969 263.45 235.745H263.447ZM64.1617 251.786C66.012 251.803 68.2931 251.492 69.0279 249.676C70.4339 246.202 72.1373 242.425 73.6268 238.985C74.5687 236.81 74.0577 235.742 71.6964 235.695C66.4762 235.591 61.2527 235.632 56.0359 235.795C55.1608 235.822 53.9585 236.567 53.521 237.328C51.6006 240.675 49.767 244.091 48.1739 247.605C47.222 249.706 48.1037 251.846 50.819 251.803C53.2638 251.766 53.885 251.79 56.3298 251.79C58.7178 251.79 61.7704 251.76 64.1617 251.783V251.786ZM272.965 229.443C275.487 229.423 276.512 227.689 275.367 225.435C274.091 222.92 272.692 220.455 271.583 217.867C270.758 215.94 269.465 215.208 267.475 215.225C263.079 215.265 258.684 215.222 254.292 215.238C251.694 215.248 251.16 216.047 252.108 218.558C253.254 221.591 254.459 224.603 255.638 227.623C256.139 228.905 257.038 229.496 258.45 229.463C260.842 229.406 263.233 229.446 265.628 229.446C268.076 229.446 270.524 229.463 272.972 229.443H272.965ZM75.9647 229.419C77.3207 229.416 78.5197 229.065 79.0775 227.676C80.37 224.456 81.6558 221.233 82.8815 217.99C83.5428 216.244 82.788 215.172 80.911 215.162C76.2453 215.135 71.5795 215.162 66.9171 215.165C65.5511 215.165 64.3521 215.596 63.7075 216.855C62.2246 219.757 60.7451 222.666 59.4125 225.642C58.3537 228 59.3523 229.386 61.9708 229.416C64.2486 229.443 66.5263 229.423 68.8008 229.423C71.1887 229.423 73.5767 229.429 75.9647 229.423V229.419ZM245.816 197.39C243.982 197.404 243.404 198.185 244.022 199.915C245.038 202.754 246.116 205.573 247.155 208.405C247.559 209.507 248.254 210.098 249.5 210.088C254.229 210.058 258.958 210.105 263.687 210.062C265.825 210.042 266.753 208.535 265.885 206.592C264.783 204.133 263.627 201.702 262.508 199.251C261.917 197.948 260.945 197.347 259.502 197.374C257.278 197.417 255.05 197.387 252.826 197.387C250.488 197.387 248.154 197.377 245.816 197.39ZM84.7251 209.731C86.0878 209.761 86.9628 209.16 87.4003 207.928C88.2854 205.433 89.1638 202.934 89.9687 200.416C90.5665 198.556 89.7984 197.444 87.8779 197.424C83.4259 197.38 78.9706 197.337 74.5219 197.477C73.7036 197.504 72.538 198.202 72.1773 198.917C70.9316 201.368 69.7292 203.896 68.9744 206.528C68.4067 208.502 68.5035 209.915 71.3691 209.744C73.5333 209.614 75.7076 209.718 77.8785 209.718C80.1596 209.718 82.444 209.681 84.7251 209.731Z" fill="url(#paint3_linear_2039_3308)"/>
<path d="M253.932 261.305C253.932 261.609 253.902 261.913 253.835 262.21C253.544 263.54 252.589 267.247 249.483 269.922C246.724 272.297 243.374 273.506 239.824 273.506L96.7052 273.496C95.6832 273.496 92.6773 273.422 91.495 273.172C91.495 273.172 89.8585 272.864 87.2334 271.492C84.9155 270.279 83.4326 268.299 81.7594 265.513C81.3118 264.769 80.9912 263.954 80.7975 263.105L80.7507 262.898C80.7507 262.898 80.7407 255.644 80.7407 253.427C80.7407 251.209 80.9545 249.549 80.9545 249.549C80.9545 249.549 82.4641 252.829 83.7199 254.218C84.9756 255.607 85.8407 256.596 88.6862 257.982C90.0689 258.657 91.8791 259.094 93.549 259.318C95.2189 259.542 96.8288 259.532 97.7038 259.535C111.952 259.545 236.792 259.629 240.666 259.535C244.774 259.435 247.9 257.932 249.176 256.763C253.564 252.752 253.337 249.232 253.674 248.49" fill="url(#paint4_linear_2039_3308)"/>
<path d="M109.146 295.43C109.146 295.43 109.089 296.482 110.091 296.482C111.093 296.482 126.507 296.482 127.559 296.482C128.611 296.482 130.147 295.43 130.147 295.43L129.937 299.07C129.937 299.07 129.816 300.132 127.702 300.169C125.986 300.199 112.813 300.169 111.167 300.169C109.236 300.169 109.099 298.125 109.099 298.125C109.099 298.125 109.079 297.023 109.079 296.385C109.079 295.747 109.143 295.43 109.143 295.43H109.146Z" fill="url(#paint5_linear_2039_3308)"/>
<path d="M156.151 295.43C156.151 295.43 156.094 296.482 157.096 296.482C158.098 296.482 173.512 296.515 174.564 296.482C178.521 296.358 178.642 295.43 178.642 295.43C178.642 295.43 178.722 297.577 178.722 298.162C178.722 299.621 177.903 300.159 175.432 300.246C173.715 300.306 159.822 300.169 158.178 300.169C156.248 300.169 156.111 298.125 156.111 298.125C156.111 298.125 156.091 297.023 156.091 296.385C156.091 295.747 156.154 295.43 156.154 295.43H156.151Z" fill="url(#paint6_linear_2039_3308)"/>
<path d="M204.906 295.39C204.906 295.39 205.08 296.478 205.931 296.478C206.933 296.478 222.347 296.498 223.399 296.478C225.904 296.428 225.967 294.889 225.967 294.889C225.967 294.889 226.034 297.363 226.034 297.948C226.034 299.451 225.439 300.323 221.635 300.242C219.919 300.206 209.532 300.232 207.885 300.242C205.484 300.259 204.843 298.629 204.843 298.629C204.843 298.629 204.919 297.023 204.919 296.382C204.919 295.74 204.903 295.39 204.903 295.39H204.906Z" fill="url(#paint7_linear_2039_3308)"/>
</mask>
<g mask="url(#mask0_2039_3308)">
<rect x="-29" y="-55" width="400" height="451" fill="white"/>
</g>
<defs>
<linearGradient id="paint0_linear_2039_3308" x1="104.955" y1="176.912" x2="51.2733" y2="254.523" gradientUnits="userSpaceOnUse">
<stop stop-color="#008EBE"/>
<stop offset="0.43" stop-color="#0078BE"/>
<stop offset="0.98" stop-color="#0058BF"/>
</linearGradient>
<linearGradient id="paint1_linear_2039_3308" x1="208.8" y1="23.3119" x2="100.773" y2="225.683" gradientUnits="userSpaceOnUse">
<stop stop-color="#00C742"/>
<stop offset="0.29" stop-color="#00B36C"/>
<stop offset="0.93" stop-color="#0082D6"/>
<stop offset="1" stop-color="#007DE3"/>
</linearGradient>
<linearGradient id="paint2_linear_2039_3308" x1="264.733" y1="202.481" x2="264.893" y2="245.602" gradientUnits="userSpaceOnUse">
<stop stop-color="#308E76"/>
<stop offset="1" stop-color="#307B80"/>
</linearGradient>
<linearGradient id="paint3_linear_2039_3308" x1="257.702" y1="111.459" x2="121.69" y2="308.106" gradientUnits="userSpaceOnUse">
<stop stop-color="#00C742"/>
<stop offset="0.15" stop-color="#00BD57"/>
<stop offset="0.45" stop-color="#00A38E"/>
<stop offset="0.88" stop-color="#007DE3"/>
</linearGradient>
<linearGradient id="paint4_linear_2039_3308" x1="233.188" y1="227.533" x2="97.607" y2="292.356" gradientUnits="userSpaceOnUse">
<stop offset="0.02" stop-color="#00B0A8"/>
<stop offset="0.05" stop-color="#00A6AA"/>
<stop offset="0.15" stop-color="#0089B1"/>
<stop offset="0.26" stop-color="#0073B7"/>
<stop offset="0.38" stop-color="#0064BB"/>
<stop offset="0.52" stop-color="#005ABE"/>
<stop offset="0.71" stop-color="#0058BF"/>
</linearGradient>
<linearGradient id="paint5_linear_2039_3308" x1="136.883" y1="289.184" x2="119.934" y2="297.29" gradientUnits="userSpaceOnUse">
<stop offset="0.02" stop-color="#00B0A8"/>
<stop offset="0.05" stop-color="#00A6AA"/>
<stop offset="0.15" stop-color="#0089B1"/>
<stop offset="0.26" stop-color="#0073B7"/>
<stop offset="0.38" stop-color="#0064BB"/>
<stop offset="0.52" stop-color="#005ABE"/>
<stop offset="0.71" stop-color="#0058BF"/>
</linearGradient>
<linearGradient id="paint6_linear_2039_3308" x1="185.759" y1="288.65" x2="167.69" y2="297.287" gradientUnits="userSpaceOnUse">
<stop offset="0.02" stop-color="#00B0A8"/>
<stop offset="0.05" stop-color="#00A6AA"/>
<stop offset="0.15" stop-color="#0089B1"/>
<stop offset="0.26" stop-color="#0073B7"/>
<stop offset="0.38" stop-color="#0064BB"/>
<stop offset="0.52" stop-color="#005ABE"/>
<stop offset="0.71" stop-color="#0058BF"/>
</linearGradient>
<linearGradient id="paint7_linear_2039_3308" x1="233.028" y1="288.97" x2="215.781" y2="297.217" gradientUnits="userSpaceOnUse">
<stop offset="0.02" stop-color="#00B0A8"/>
<stop offset="0.05" stop-color="#00A6AA"/>
<stop offset="0.15" stop-color="#0089B1"/>
<stop offset="0.26" stop-color="#0073B7"/>
<stop offset="0.38" stop-color="#0064BB"/>
<stop offset="0.52" stop-color="#005ABE"/>
<stop offset="0.71" stop-color="#0058BF"/>
</linearGradient>
</defs>
</svg>
