<svg width="993" height="193" viewBox="0 0 993 193" fill="none" xmlns="http://www.w3.org/2000/svg">
<path d="M55.621 84.6189V72.9533H114.22V84.6189H91.5673V142.404H78.3644V84.6189H55.621ZM154.541 143.806C148.03 143.806 142.348 142.314 137.495 139.33C132.642 136.345 128.874 132.171 126.191 126.805C123.508 121.439 122.167 115.17 122.167 107.995C122.167 100.791 123.508 94.491 126.191 89.0953C128.874 83.6996 132.642 79.5096 137.495 76.5254C142.348 73.5412 148.03 72.049 154.541 72.049C161.052 72.049 166.734 73.5412 171.587 76.5254C176.44 79.5096 180.208 83.6996 182.891 89.0953C185.574 94.491 186.915 100.791 186.915 107.995C186.915 115.17 185.574 121.439 182.891 126.805C180.208 132.171 176.44 136.345 171.587 139.33C166.734 142.314 161.052 143.806 154.541 143.806ZM154.586 132.457C158.806 132.457 162.303 131.342 165.076 129.111C167.85 126.88 169.899 123.911 171.226 120.204C172.582 116.496 173.26 112.411 173.26 107.95C173.26 103.519 172.582 99.4496 171.226 95.7419C169.899 92.0041 167.85 89.0048 165.076 86.7441C162.303 84.4833 158.806 83.3529 154.586 83.3529C150.336 83.3529 146.809 84.4833 144.006 86.7441C141.233 89.0048 139.168 92.0041 137.811 95.7419C136.485 99.4496 135.822 103.519 135.822 107.95C135.822 112.411 136.485 116.496 137.811 120.204C139.168 123.911 141.233 126.88 144.006 129.111C146.809 131.342 150.336 132.457 154.586 132.457ZM257.757 72.9533V142.404H244.554V72.9533H257.757ZM252.014 105.192V116.858C249.934 117.702 247.734 118.455 245.413 119.118C243.092 119.751 240.65 120.249 238.088 120.61C235.526 120.972 232.858 121.153 230.085 121.153C221.494 121.153 214.666 119.058 209.602 114.868C204.538 110.648 202.006 104.197 202.006 95.5159V72.8177H215.164V95.5159C215.164 98.8015 215.767 101.469 216.972 103.519C218.178 105.569 219.896 107.076 222.127 108.041C224.358 109.005 227.01 109.487 230.085 109.487C234.154 109.487 237.907 109.111 241.344 108.357C244.81 107.573 248.367 106.518 252.014 105.192ZM275.741 142.404V72.9533H289.261V102.072H295.772L318.696 72.9533H335.426L308.522 106.729L335.742 142.404H318.967L298.032 114.642H289.261V142.404H275.741ZM366.455 143.942C362.054 143.942 358.075 143.128 354.518 141.5C350.961 139.842 348.142 137.446 346.063 134.311C344.013 131.176 342.988 127.332 342.988 122.781C342.988 118.862 343.741 115.637 345.249 113.105C346.756 110.573 348.791 108.568 351.353 107.091C353.915 105.614 356.779 104.499 359.944 103.745C363.109 102.991 366.334 102.419 369.62 102.027C373.78 101.545 377.156 101.153 379.748 100.851C382.34 100.52 384.224 99.9922 385.4 99.2687C386.576 98.5453 387.163 97.3697 387.163 95.7419V95.4254C387.163 91.4766 386.048 88.417 383.817 86.2467C381.617 84.0764 378.331 82.9912 373.96 82.9912C369.409 82.9912 365.822 84.001 363.199 86.0206C360.607 88.0101 358.813 90.2257 357.819 92.6673L345.113 89.7735C346.62 85.5534 348.821 82.1472 351.714 79.5548C354.638 76.9323 357.999 75.0333 361.797 73.8577C365.596 72.6519 369.59 72.049 373.78 72.049C376.553 72.049 379.492 72.3806 382.597 73.0438C385.732 73.6768 388.655 74.8524 391.368 76.5706C394.111 78.2888 396.357 80.7455 398.106 83.9407C399.854 87.1058 400.728 91.2204 400.728 96.2845V142.404H387.525V132.909H386.982C386.108 134.657 384.797 136.376 383.049 138.064C381.3 139.752 379.055 141.153 376.312 142.269C373.569 143.384 370.283 143.942 366.455 143.942ZM369.394 133.09C373.131 133.09 376.327 132.351 378.979 130.874C381.662 129.397 383.697 127.468 385.083 125.087C386.5 122.675 387.209 120.098 387.209 117.355V108.402C386.726 108.885 385.792 109.337 384.405 109.759C383.049 110.151 381.496 110.497 379.748 110.799C378 111.07 376.297 111.326 374.639 111.567C372.981 111.778 371.594 111.959 370.479 112.11C367.856 112.442 365.46 112.999 363.29 113.783C361.149 114.567 359.431 115.697 358.135 117.174C356.869 118.621 356.236 120.55 356.236 122.962C356.236 126.308 357.472 128.84 359.944 130.558C362.415 132.246 365.565 133.09 369.394 133.09ZM587.219 168.448V72.9533H600.422V84.212H601.552C602.336 82.7651 603.467 81.0921 604.944 79.1931C606.421 77.294 608.47 75.6361 611.093 74.2194C613.715 72.7725 617.182 72.049 621.492 72.049C627.099 72.049 632.103 73.4658 636.504 76.2993C640.905 79.1328 644.356 83.2173 646.858 88.5527C649.39 93.8881 650.656 100.309 650.656 107.814C650.656 115.32 649.406 121.756 646.904 127.121C644.402 132.457 640.965 136.572 636.594 139.465C632.224 142.329 627.235 143.761 621.628 143.761C617.408 143.761 613.957 143.052 611.274 141.636C608.621 140.219 606.541 138.561 605.034 136.662C603.527 134.763 602.366 133.075 601.552 131.598H600.739V168.448H587.219ZM600.467 107.679C600.467 112.562 601.176 116.842 602.592 120.52C604.009 124.198 606.059 127.076 608.742 129.156C611.425 131.206 614.71 132.231 618.599 132.231C622.638 132.231 626.014 131.161 628.727 129.021C631.44 126.85 633.49 123.911 634.876 120.204C636.293 116.496 637.001 112.321 637.001 107.679C637.001 103.097 636.308 98.9824 634.921 95.335C633.565 91.6876 631.515 88.8089 628.772 86.6988C626.059 84.5888 622.668 83.5338 618.599 83.5338C614.68 83.5338 611.364 84.5436 608.651 86.5632C605.969 88.5828 603.934 91.4013 602.547 95.0185C601.161 98.6357 600.467 102.856 600.467 107.679ZM695.058 143.806C688.547 143.806 682.865 142.314 678.012 139.33C673.159 136.345 669.391 132.171 666.708 126.805C664.025 121.439 662.684 115.17 662.684 107.995C662.684 100.791 664.025 94.491 666.708 89.0953C669.391 83.6996 673.159 79.5096 678.012 76.5254C682.865 73.5412 688.547 72.049 695.058 72.049C701.569 72.049 707.251 73.5412 712.104 76.5254C716.957 79.5096 720.725 83.6996 723.408 89.0953C726.091 94.491 727.432 100.791 727.432 107.995C727.432 115.17 726.091 121.439 723.408 126.805C720.725 132.171 716.957 136.345 712.104 139.33C707.251 142.314 701.569 143.806 695.058 143.806ZM695.103 132.457C699.323 132.457 702.82 131.342 705.593 129.111C708.366 126.88 710.416 123.911 711.743 120.204C713.099 116.496 713.777 112.411 713.777 107.95C713.777 103.519 713.099 99.4496 711.743 95.7419C710.416 92.0041 708.366 89.0048 705.593 86.7441C702.82 84.4833 699.323 83.3529 695.103 83.3529C690.853 83.3529 687.326 84.4833 684.523 86.7441C681.75 89.0048 679.685 92.0041 678.328 95.7419C677.002 99.4496 676.339 103.519 676.339 107.95C676.339 112.411 677.002 116.496 678.328 120.204C679.685 123.911 681.75 126.88 684.523 129.111C687.326 131.342 690.853 132.457 695.103 132.457ZM771.777 143.806C765.055 143.806 759.268 142.284 754.415 139.239C749.592 136.165 745.884 131.929 743.292 126.534C740.699 121.138 739.403 114.959 739.403 107.995C739.403 100.942 740.729 94.7171 743.382 89.3213C746.035 83.8955 749.773 79.6603 754.596 76.6158C759.419 73.5713 765.101 72.049 771.642 72.049C776.917 72.049 781.619 73.0287 785.749 74.988C789.879 76.9172 793.21 79.6302 795.742 83.1268C798.304 86.6235 799.826 90.708 800.308 95.3802H787.151C786.427 92.1247 784.769 89.3213 782.177 86.9701C779.615 84.6189 776.178 83.4433 771.868 83.4433C768.1 83.4433 764.799 84.4381 761.966 86.4276C759.162 88.3869 756.977 91.1903 755.409 94.8376C753.842 98.4549 753.058 102.735 753.058 107.679C753.058 112.743 753.827 117.114 755.364 120.791C756.902 124.469 759.072 127.317 761.875 129.337C764.709 131.357 768.04 132.366 771.868 132.366C774.43 132.366 776.751 131.899 778.831 130.965C780.941 130 782.704 128.629 784.121 126.85C785.568 125.072 786.578 122.932 787.151 120.43H800.308C799.826 124.921 798.364 128.93 795.922 132.457C793.481 135.984 790.21 138.757 786.111 140.777C782.041 142.796 777.264 143.806 771.777 143.806ZM809.51 84.6189V72.9533H868.109V84.6189H845.456V142.404H832.253V84.6189H809.51ZM899.387 143.942C894.986 143.942 891.007 143.128 887.45 141.5C883.893 139.842 881.075 137.446 878.995 134.311C876.945 131.176 875.92 127.332 875.92 122.781C875.92 118.862 876.674 115.637 878.181 113.105C879.688 110.573 881.723 108.568 884.285 107.091C886.847 105.614 889.711 104.499 892.876 103.745C896.041 102.991 899.266 102.419 902.552 102.027C906.712 101.545 910.088 101.153 912.68 100.851C915.272 100.52 917.156 99.9922 918.332 99.2687C919.508 98.5453 920.095 97.3697 920.095 95.7419V95.4254C920.095 91.4766 918.98 88.417 916.75 86.2467C914.549 84.0764 911.263 82.9912 906.893 82.9912C902.341 82.9912 898.754 84.001 896.131 86.0206C893.539 88.0101 891.745 90.2257 890.751 92.6673L878.045 89.7735C879.552 85.5534 881.753 82.1472 884.647 79.5548C887.57 76.9323 890.931 75.0333 894.73 73.8577C898.528 72.6519 902.522 72.049 906.712 72.049C909.485 72.049 912.424 72.3806 915.529 73.0438C918.664 73.6768 921.588 74.8524 924.3 76.5706C927.044 78.2888 929.289 80.7455 931.038 83.9407C932.786 87.1058 933.66 91.2204 933.66 96.2845V142.404H920.457V132.909H919.915C919.04 134.657 917.729 136.376 915.981 138.064C914.233 139.752 911.987 141.153 909.244 142.269C906.501 143.384 903.215 143.942 899.387 143.942ZM902.326 133.09C906.064 133.09 909.259 132.351 911.911 130.874C914.594 129.397 916.629 127.468 918.016 125.087C919.432 122.675 920.141 120.098 920.141 117.355V108.402C919.658 108.885 918.724 109.337 917.337 109.759C915.981 110.151 914.428 110.497 912.68 110.799C910.932 111.07 909.229 111.326 907.571 111.567C905.913 111.778 904.526 111.959 903.411 112.11C900.788 112.442 898.392 112.999 896.222 113.783C894.081 114.567 892.363 115.697 891.067 117.174C889.801 118.621 889.168 120.55 889.168 122.962C889.168 126.308 890.404 128.84 892.876 130.558C895.348 132.246 898.498 133.09 902.326 133.09Z" fill="black"/>
<path d="M435.922 142.384C436.961 142.394 438.242 142.219 438.655 141.199C439.445 139.248 440.401 137.126 441.238 135.194C441.767 133.973 441.48 133.372 440.154 133.346C437.222 133.288 434.288 133.31 431.357 133.402C430.866 133.417 430.191 133.836 429.945 134.263C428.866 136.143 427.836 138.062 426.942 140.035C426.407 141.215 426.902 142.418 428.427 142.394C429.8 142.373 430.149 142.386 431.523 142.386C432.864 142.386 434.578 142.369 435.922 142.382V142.384ZM442.551 129.821C443.313 129.819 443.986 129.622 444.299 128.842C445.025 127.034 445.748 125.223 446.436 123.402C446.807 122.421 446.384 121.818 445.329 121.813C442.709 121.798 440.088 121.813 437.469 121.815C436.702 121.815 436.028 122.057 435.666 122.764C434.834 124.394 434.002 126.028 433.254 127.699C432.659 129.024 433.22 129.802 434.691 129.819C435.97 129.834 437.25 129.823 438.527 129.823C439.868 129.823 441.21 129.827 442.551 129.823V129.821ZM447.472 118.763C448.237 118.78 448.728 118.442 448.974 117.75C449.471 116.348 449.965 114.945 450.417 113.531C450.753 112.486 450.321 111.861 449.242 111.85C446.742 111.825 444.239 111.801 441.741 111.88C441.281 111.895 440.626 112.287 440.424 112.688C439.724 114.065 439.049 115.485 438.625 116.964C438.306 118.072 438.36 118.866 439.97 118.77C441.185 118.697 442.407 118.755 443.626 118.755C444.907 118.755 446.19 118.734 447.472 118.763Z" fill="url(#paint0_linear_1971_3441)"/>
<path d="M455.892 60.0427C458.183 61.4197 460.65 62.7347 462.936 64.3123C468.202 67.946 472.601 72.4238 475.623 78.1378C476.094 79.0289 476.499 79.9556 476.97 80.8485C477.289 81.4544 477.21 81.8165 476.494 81.9816C473.817 82.5987 471.164 83.3547 468.461 83.8143C466.489 84.1501 464.443 84.2964 462.449 84.1914C456.541 83.8837 451.323 81.7883 446.845 77.8527C442.303 73.8607 439.898 68.6813 438.321 63.0029C437.208 58.996 436.092 54.989 434.94 50.9933C434.687 50.1154 434.237 49.2938 433.954 48.4215C433.552 47.1796 434.111 46.5999 435.385 46.8926C438.934 47.7067 442.538 48.005 446.162 47.8118C448.466 47.688 450.754 47.3053 453.054 47.1008C459.314 46.5437 465.446 46.9001 471.153 49.9053C475.837 52.374 479.478 55.9157 481.795 60.7012C483.086 63.3669 483.879 66.1976 483.905 69.1972C483.915 70.3321 484.014 71.4783 483.881 72.5964C483.699 74.1233 484.352 75.2789 485.192 76.4157C487.999 80.2088 490.148 84.3546 491.779 88.7742C492.156 89.7947 492.518 90.8227 492.962 92.0533C494.264 87.3579 496.078 83.1052 498.251 79.0082C499.023 77.5488 500.051 76.215 500.731 74.718C501.301 73.4649 501.738 72.0805 501.877 70.7167C502.299 66.5709 503.261 62.5921 504.895 58.7559C506.763 54.3719 509.521 50.6313 512.971 47.3972C515.899 44.6527 519.272 42.5949 523.054 41.2179C526.673 39.9011 530.389 39.0944 534.247 39.0044C536.898 38.9425 539.551 38.8355 542.201 38.8487C544.227 38.858 546.251 39.1075 548.277 39.1019C552.042 39.0907 555.824 39.1019 559.388 37.5655C560.274 37.1828 560.932 37.6087 560.786 38.5804C560.54 40.2087 560.137 41.8182 559.728 43.4165C558.482 48.2939 557.209 53.1638 555.937 58.0336C554.494 63.5638 552.545 68.8858 549.09 73.5081C545.994 77.6482 542.106 80.8992 537.399 83.0808C534.227 84.5516 530.937 85.6471 527.399 85.9379C523.272 86.2774 519.175 86.268 515.154 85.1969C512.89 84.5928 510.667 83.8275 508.437 83.0996C507.559 82.8126 507.232 82.1485 507.7 81.3738C509.153 78.967 510.555 76.5076 512.23 74.2584C514.104 71.7409 516.164 69.3435 518.319 67.0605C520.004 65.2784 521.893 63.6689 523.806 62.1269C527.483 59.1667 531.606 56.9175 535.855 54.8952C536.262 54.702 536.675 54.5163 537.029 54.1467C535.189 54.5838 533.343 54.9984 531.511 55.4599C526.633 56.683 522.416 59.2136 518.449 62.1944C517.216 63.1211 516.126 64.2373 514.969 65.2653C511.382 68.4506 508.379 72.1311 505.908 76.2244C502.545 81.7977 499.614 87.5755 498.545 94.0943C498.138 96.578 497.705 99.0861 497.635 101.592C497.455 108.205 497.448 114.821 497.418 121.438C497.408 123.336 496.746 124.76 494.94 125.497C493.133 126.234 491.477 125.981 490.017 124.636C489.119 123.807 488.894 122.734 488.894 121.586C488.894 119.179 488.942 116.772 488.924 114.364C488.895 110.614 488.954 106.858 488.749 103.117C488.46 97.8405 487.689 92.633 485.802 87.6393C484.164 83.3059 481.955 79.2952 479.128 75.6428C477.756 73.872 476.28 72.1649 474.702 70.5741C470.057 65.8937 464.61 62.5171 458.207 60.765C457.391 60.5417 456.59 60.2641 455.887 60.0427H455.892ZM495.219 35.6821C492.469 41.897 491.767 48.5115 491.445 55.1823C491.188 60.5005 491.989 65.7549 492.79 70.9925C492.96 72.1124 493.469 73.1798 493.822 74.2715C493.972 74.2528 494.12 74.2322 494.27 74.2134C494.352 72.5232 494.518 70.833 494.497 69.1447C494.463 66.2426 494.197 63.3387 494.244 60.4386C494.292 57.2626 495.36 54.415 497.701 52.1489C499.159 50.7382 500.67 49.38 502.087 47.9281C503.888 46.0841 505 43.803 505.435 41.3099C505.794 39.2576 505.959 37.1153 505.796 35.0462C505.623 32.8532 505.103 30.6584 504.482 28.5368C503.698 25.8505 502.608 23.2561 501.753 20.5885C501.228 18.9471 500.665 18.6169 499.147 19.3898C498.958 19.4874 498.781 19.6112 498.603 19.7293C496.654 21.0312 494.684 22.2993 492.764 23.6425C489.938 25.6197 487.344 27.8746 485.378 30.7278C481.733 36.0198 481.08 41.5969 484.168 47.3897C485.153 49.2375 486.672 50.6444 488.299 52.0345C489.618 44.9679 491.285 38.1827 496.256 32.7557C495.915 33.7312 495.637 34.7367 495.219 35.6802V35.6821Z" fill="url(#paint1_linear_1971_3441)"/>
<path d="M547.356 133.27C545.953 133.144 545.355 134.076 545.972 135.421C546.833 137.299 547.596 139.22 548.407 141.12C548.765 141.963 549.427 142.304 550.32 142.302C553.16 142.295 555.999 142.306 558.839 142.297C560.278 142.291 560.938 141.154 560.274 139.86C559.285 137.929 558.332 135.98 557.278 134.088C557.07 133.714 556.488 133.36 556.059 133.333C554.567 133.242 553.065 133.298 551.568 133.298C550.163 133.298 548.75 133.395 547.358 133.27H547.356ZM552.703 129.73C554.119 129.719 554.695 128.745 554.051 127.479C553.335 126.066 552.549 124.682 551.926 123.228C551.463 122.145 550.737 121.735 549.619 121.744C547.15 121.767 544.681 121.742 542.214 121.752C540.755 121.757 540.455 122.206 540.988 123.616C541.631 125.32 542.308 127.012 542.97 128.707C543.252 129.428 543.756 129.76 544.55 129.741C545.893 129.709 547.236 129.732 548.581 129.732C549.956 129.732 551.331 129.741 552.706 129.73H552.703ZM537.453 111.727C536.423 111.734 536.099 112.173 536.446 113.145C537.016 114.739 537.622 116.323 538.206 117.913C538.433 118.532 538.823 118.864 539.522 118.859C542.179 118.842 544.835 118.868 547.491 118.844C548.692 118.833 549.213 117.987 548.726 116.895C548.107 115.514 547.458 114.148 546.829 112.772C546.497 112.04 545.951 111.702 545.141 111.717C543.891 111.742 542.64 111.725 541.391 111.725C540.078 111.725 538.766 111.719 537.453 111.727Z" fill="url(#paint2_linear_1971_3441)"/>
<path d="M464.797 153.635C461.353 153.635 458.012 153.65 454.673 153.628C453.525 153.62 452.351 153.652 451.236 153.425C448.271 152.821 446.216 151.086 445.385 148.112C445.155 147.289 445.093 146.396 445.089 145.535C445.083 143.479 444.868 141.363 445.28 139.382C445.734 137.206 446.762 135.142 447.595 133.053C450.818 124.967 454.095 116.903 457.286 108.804C458.513 105.692 461.441 103.55 464.799 103.548C467.176 103.548 469.553 103.499 471.926 103.573C472.854 103.601 473.224 103.205 473.393 102.404C473.635 101.258 473.909 100.119 474.134 98.9709C474.288 98.1887 474.721 97.8942 475.509 97.9092C477.227 97.9429 478.949 97.9542 480.666 97.9054C481.551 97.8792 481.833 98.3162 481.836 99.0835C481.844 100.483 481.838 101.88 481.838 103.321C482.789 103.402 483.654 103.531 484.517 103.531C485.337 103.531 485.624 103.858 485.601 104.655C485.562 106.03 485.547 107.407 485.607 108.78C485.644 109.63 485.205 109.992 484.494 110.095C483.695 110.211 482.883 110.279 482.075 110.285C479.167 110.307 476.259 110.296 473.352 110.3C470.74 110.301 468.945 111.624 468.197 114.085C466.608 119.3 465.013 124.512 463.428 129.728C463.285 130.199 463.137 130.681 463.088 131.167C462.843 133.666 463.683 134.488 466.187 135.215C466.861 135.412 467.606 135.429 468.317 135.429C485.262 135.441 502.205 135.45 519.15 135.412C520.3 135.411 521.544 135.253 522.581 134.797C524.405 133.996 524.855 132.426 524.106 129.924C522.667 125.117 521.148 120.334 519.664 115.541C519.492 114.982 519.332 114.421 519.165 113.86C518.514 111.678 516.68 110.303 514.395 110.3C510.517 110.294 506.642 110.3 502.764 110.292C501.1 110.288 500.973 110.15 500.973 108.474C500.973 107.255 500.967 106.036 500.973 104.816C500.978 103.807 501.218 103.571 502.246 103.546C503.152 103.524 504.057 103.509 504.963 103.486C505.617 103.469 505.891 103.16 505.861 102.479C505.814 101.387 505.852 100.292 505.848 99.196C505.846 98.3519 506.255 97.9204 507.105 97.9185C508.825 97.9185 510.543 97.8998 512.264 97.9261C513.295 97.9411 513.717 98.3369 513.911 99.3461C514.095 100.318 514.378 101.284 514.434 102.261C514.496 103.334 515.078 103.552 515.965 103.548C518.152 103.539 520.341 103.584 522.529 103.537C525.744 103.469 528.888 105.713 530.059 108.656C532.011 113.566 533.975 118.471 535.962 123.367C537.829 127.969 539.778 132.54 541.584 137.165C542.034 138.314 542.203 139.616 542.278 140.862C542.38 142.541 542.306 144.156 542.316 145.844C542.338 150.525 538.622 153.528 534.503 153.614C530.629 153.697 526.751 153.631 522.757 153.631C523.341 155.436 523.892 157.182 524.472 158.918C525.127 160.882 525.877 162.818 526.446 164.806C526.684 165.643 526.637 166.585 526.588 167.472C526.541 168.32 525.847 168.599 525.116 168.607C522.178 168.633 519.238 168.644 516.301 168.607C515.329 168.595 514.723 168.057 514.473 167.055C513.436 162.863 512.341 158.687 511.318 154.49C511.153 153.811 510.909 153.603 510.217 153.613C506.934 153.65 503.651 153.629 500.368 153.629H499.421C499.53 155.745 499.622 157.762 499.744 159.775C499.802 160.735 499.975 161.688 500.005 162.649C500.053 164.228 500.031 165.812 500.033 167.393C500.033 168.297 499.397 168.599 498.675 168.607C495.424 168.641 492.173 168.642 488.922 168.609C487.738 168.597 487.25 168.087 487.305 166.92C487.451 163.724 487.669 160.529 487.819 157.333C487.875 156.13 487.828 154.924 487.828 153.661C487.775 153.658 487.595 153.631 487.413 153.631C483.911 153.629 480.411 153.639 476.908 153.618C476.342 153.614 476.132 153.757 475.998 154.363C475.077 158.55 474.104 162.724 473.119 166.896C472.809 168.203 472.224 168.618 470.842 168.622C468.122 168.629 465.401 168.631 462.681 168.622C461.415 168.616 461.044 168.337 460.961 167.072C460.909 166.262 460.956 165.391 461.196 164.624C462.34 160.976 463.565 157.351 464.792 153.629L464.797 153.635ZM547.651 132.413C546.248 132.287 545.649 133.22 546.266 134.565C547.127 136.442 547.891 138.363 548.701 140.264C549.06 141.106 549.722 141.447 550.615 141.445C553.455 141.438 556.293 141.449 559.133 141.44C560.572 141.434 561.232 140.297 560.568 139.003C559.58 137.073 558.627 135.124 557.573 133.231C557.364 132.857 556.783 132.503 556.353 132.477C554.862 132.385 553.359 132.441 551.862 132.441C550.457 132.441 549.045 132.539 547.653 132.413H547.651ZM435.717 141.423C436.756 141.432 438.037 141.258 438.45 140.237C439.24 138.286 440.197 136.165 441.033 134.232C441.562 133.011 441.275 132.411 439.949 132.385C437.017 132.327 434.083 132.349 431.153 132.441C430.661 132.456 429.986 132.874 429.74 133.302C428.662 135.182 427.632 137.101 426.737 139.074C426.202 140.254 426.698 141.457 428.223 141.432C429.596 141.412 429.945 141.425 431.318 141.425C432.659 141.425 434.374 141.408 435.717 141.421V141.423ZM552.997 128.873C554.414 128.862 554.989 127.888 554.346 126.622C553.629 125.209 552.843 123.825 552.221 122.371C551.757 121.289 551.031 120.878 549.913 120.887C547.445 120.91 544.976 120.885 542.509 120.895C541.05 120.9 540.749 121.349 541.282 122.759C541.926 124.463 542.603 126.155 543.265 127.851C543.546 128.571 544.051 128.903 544.845 128.884C546.188 128.852 547.531 128.875 548.876 128.875C550.251 128.875 551.626 128.884 553.001 128.873H552.997ZM442.346 128.86C443.108 128.858 443.782 128.661 444.095 127.881C444.821 126.072 445.543 124.262 446.231 122.441C446.603 121.459 446.179 120.857 445.125 120.852C442.504 120.837 439.883 120.852 437.265 120.853C436.497 120.853 435.824 121.095 435.462 121.803C434.629 123.433 433.798 125.067 433.049 126.738C432.455 128.063 433.016 128.841 434.486 128.858C435.766 128.873 437.045 128.862 438.323 128.862C439.664 128.862 441.005 128.866 442.346 128.862V128.86ZM537.748 110.87C536.718 110.877 536.394 111.316 536.741 112.288C537.311 113.883 537.917 115.466 538.5 117.057C538.727 117.676 539.117 118.008 539.817 118.002C542.473 117.985 545.13 118.011 547.786 117.987C548.987 117.976 549.508 117.13 549.02 116.038C548.401 114.657 547.752 113.292 547.124 111.915C546.792 111.183 546.246 110.845 545.435 110.86C544.186 110.885 542.935 110.868 541.685 110.868C540.372 110.868 539.061 110.862 537.748 110.87ZM447.267 117.801C448.032 117.818 448.524 117.481 448.77 116.788C449.267 115.387 449.76 113.984 450.212 112.569C450.548 111.525 450.116 110.9 449.038 110.889C446.537 110.864 444.035 110.84 441.536 110.919C441.076 110.934 440.422 111.326 440.219 111.727C439.519 113.104 438.844 114.524 438.42 116.002C438.101 117.111 438.156 117.905 439.765 117.809C440.981 117.736 442.202 117.794 443.421 117.794C444.703 117.794 445.986 117.773 447.267 117.801Z" fill="url(#paint3_linear_1971_3441)"/>
<path d="M542.306 146.768C542.306 146.939 542.289 147.11 542.252 147.277C542.089 148.023 541.552 150.105 539.807 151.608C538.258 152.942 536.376 153.621 534.382 153.621L453.996 153.615C453.422 153.615 451.733 153.574 451.069 153.433C451.069 153.433 450.15 153.261 448.676 152.49C447.374 151.809 446.541 150.696 445.601 149.132C445.35 148.714 445.17 148.256 445.061 147.779L445.034 147.663C445.034 147.663 445.029 143.589 445.029 142.343C445.029 141.097 445.149 140.165 445.149 140.165C445.149 140.165 445.997 142.007 446.702 142.787C447.407 143.568 447.893 144.123 449.492 144.902C450.268 145.281 451.285 145.526 452.223 145.652C453.161 145.778 454.065 145.772 454.557 145.774C462.559 145.78 532.679 145.826 534.855 145.774C537.162 145.718 538.918 144.874 539.635 144.217C542.1 141.964 541.972 139.987 542.162 139.57" fill="url(#paint4_linear_1971_3441)"/>
<path d="M460.984 165.938C460.984 165.938 460.952 166.528 461.514 166.528C462.077 166.528 470.735 166.528 471.325 166.528C471.916 166.528 472.779 165.938 472.779 165.938L472.661 167.982C472.661 167.982 472.594 168.579 471.406 168.599C470.442 168.616 463.043 168.599 462.118 168.599C461.034 168.599 460.957 167.451 460.957 167.451C460.957 167.451 460.946 166.832 460.946 166.474C460.946 166.116 460.982 165.938 460.982 165.938H460.984Z" fill="url(#paint5_linear_1971_3441)"/>
<path d="M487.385 165.938C487.385 165.938 487.353 166.528 487.916 166.528C488.479 166.528 497.136 166.547 497.727 166.528C499.95 166.459 500.018 165.938 500.018 165.938C500.018 165.938 500.063 167.144 500.063 167.472C500.063 168.292 499.603 168.594 498.215 168.643C497.251 168.676 489.447 168.599 488.524 168.599C487.44 168.599 487.363 167.451 487.363 167.451C487.363 167.451 487.352 166.832 487.352 166.474C487.352 166.116 487.387 165.938 487.387 165.938H487.385Z" fill="url(#paint6_linear_1971_3441)"/>
<path d="M514.77 165.912C514.77 165.912 514.867 166.524 515.346 166.524C515.908 166.524 524.566 166.535 525.157 166.524C526.564 166.496 526.599 165.631 526.599 165.631C526.599 165.631 526.637 167.021 526.637 167.349C526.637 168.193 526.303 168.683 524.166 168.638C523.202 168.617 517.368 168.632 516.443 168.638C515.094 168.647 514.734 167.732 514.734 167.732C514.734 167.732 514.777 166.83 514.777 166.469C514.777 166.109 514.768 165.912 514.768 165.912H514.77Z" fill="url(#paint7_linear_1971_3441)"/>
<defs>
<linearGradient id="paint0_linear_1971_3441" x1="458.629" y1="99.3694" x2="428.478" y2="142.962" gradientUnits="userSpaceOnUse">
<stop stop-color="#008EBE"/>
<stop offset="0.43" stop-color="#0078BE"/>
<stop offset="0.98" stop-color="#0058BF"/>
</linearGradient>
<linearGradient id="paint1_linear_1971_3441" x1="516.957" y1="13.0942" x2="456.281" y2="126.761" gradientUnits="userSpaceOnUse">
<stop stop-color="#00C742"/>
<stop offset="0.29" stop-color="#00B36C"/>
<stop offset="0.93" stop-color="#0082D6"/>
<stop offset="1" stop-color="#007DE3"/>
</linearGradient>
<linearGradient id="paint2_linear_1971_3441" x1="548.373" y1="113.73" x2="548.463" y2="137.95" gradientUnits="userSpaceOnUse">
<stop stop-color="#308E76"/>
<stop offset="1" stop-color="#307B80"/>
</linearGradient>
<linearGradient id="paint3_linear_1971_3441" x1="544.424" y1="62.6045" x2="468.03" y2="173.056" gradientUnits="userSpaceOnUse">
<stop stop-color="#00C742"/>
<stop offset="0.15" stop-color="#00BD57"/>
<stop offset="0.45" stop-color="#00A38E"/>
<stop offset="0.88" stop-color="#007DE3"/>
</linearGradient>
<linearGradient id="paint4_linear_1971_3441" x1="530.655" y1="127.799" x2="454.502" y2="164.209" gradientUnits="userSpaceOnUse">
<stop offset="0.02" stop-color="#00B0A8"/>
<stop offset="0.05" stop-color="#00A6AA"/>
<stop offset="0.15" stop-color="#0089B1"/>
<stop offset="0.26" stop-color="#0073B7"/>
<stop offset="0.38" stop-color="#0064BB"/>
<stop offset="0.52" stop-color="#005ABE"/>
<stop offset="0.71" stop-color="#0058BF"/>
</linearGradient>
<linearGradient id="paint5_linear_1971_3441" x1="476.563" y1="162.43" x2="467.043" y2="166.982" gradientUnits="userSpaceOnUse">
<stop offset="0.02" stop-color="#00B0A8"/>
<stop offset="0.05" stop-color="#00A6AA"/>
<stop offset="0.15" stop-color="#0089B1"/>
<stop offset="0.26" stop-color="#0073B7"/>
<stop offset="0.38" stop-color="#0064BB"/>
<stop offset="0.52" stop-color="#005ABE"/>
<stop offset="0.71" stop-color="#0058BF"/>
</linearGradient>
<linearGradient id="paint6_linear_1971_3441" x1="504.015" y1="162.129" x2="493.867" y2="166.981" gradientUnits="userSpaceOnUse">
<stop offset="0.02" stop-color="#00B0A8"/>
<stop offset="0.05" stop-color="#00A6AA"/>
<stop offset="0.15" stop-color="#0089B1"/>
<stop offset="0.26" stop-color="#0073B7"/>
<stop offset="0.38" stop-color="#0064BB"/>
<stop offset="0.52" stop-color="#005ABE"/>
<stop offset="0.71" stop-color="#0058BF"/>
</linearGradient>
<linearGradient id="paint7_linear_1971_3441" x1="530.565" y1="162.307" x2="520.878" y2="166.938" gradientUnits="userSpaceOnUse">
<stop offset="0.02" stop-color="#00B0A8"/>
<stop offset="0.05" stop-color="#00A6AA"/>
<stop offset="0.15" stop-color="#0089B1"/>
<stop offset="0.26" stop-color="#0073B7"/>
<stop offset="0.38" stop-color="#0064BB"/>
<stop offset="0.52" stop-color="#005ABE"/>
<stop offset="0.71" stop-color="#0058BF"/>
</linearGradient>
</defs>
</svg>





