<svg width="508" height="566" viewBox="0 0 508 566" fill="none" xmlns="http://www.w3.org/2000/svg">
<path d="M35.4991 466.346C39.4269 466.382 44.2692 465.723 45.829 461.866C48.8138 454.492 52.4297 446.474 55.5917 439.171C57.5911 434.556 56.5063 432.287 51.4938 432.188C40.4124 431.968 29.3238 432.053 18.2495 432.4C16.392 432.457 13.8396 434.038 12.9109 435.655C8.8342 442.759 4.94188 450.011 1.56003 457.47C-0.460579 461.929 1.41114 466.474 7.17518 466.382C12.3649 466.304 13.6837 466.354 18.8734 466.354C23.9427 466.354 30.4228 466.29 35.4991 466.339V466.346ZM60.5546 418.866C63.4331 418.859 65.9783 418.114 67.1624 415.165C69.9061 408.33 72.6357 401.489 75.2377 394.604C76.6415 390.896 75.0392 388.621 71.0547 388.599C61.1502 388.543 51.2456 388.599 41.3482 388.606C38.4485 388.606 35.9032 389.521 34.5349 392.194C31.387 398.355 28.2462 404.53 25.4173 410.847C23.1699 415.853 25.2897 418.795 30.8482 418.859C35.6834 418.915 40.5187 418.873 45.3469 418.873C50.4161 418.873 55.4854 418.887 60.5546 418.873V418.866ZM79.1513 377.071C82.0439 377.135 83.9015 375.859 84.8302 373.243C86.7091 367.947 88.5737 362.643 90.2823 357.298C91.5514 353.349 89.9207 350.988 85.8441 350.945C76.3933 350.853 66.9355 350.761 57.4918 351.059C55.7548 351.115 53.2804 352.597 52.5147 354.114C49.8702 359.318 47.3179 364.685 45.7156 370.272C44.5103 374.462 44.7159 377.461 50.799 377.1C55.3932 376.823 60.0087 377.043 64.6171 377.043C69.4595 377.043 74.3089 376.965 79.1513 377.071Z" fill="url(#paint0_linear_1985_3442)"/>
<path d="M110.978 155.147C119.634 160.351 128.958 165.321 137.6 171.283C157.501 185.016 174.127 201.94 185.549 223.535C187.328 226.903 188.86 230.405 190.639 233.78C191.844 236.07 191.547 237.439 188.838 238.062C178.721 240.395 168.696 243.252 158.48 244.989C151.028 246.258 143.293 246.811 135.757 246.414C113.431 245.252 93.7068 237.332 76.7834 222.458C59.6189 207.371 50.5297 187.796 44.5671 166.335C40.3628 151.191 36.1444 136.047 31.7912 120.945C30.8341 117.627 29.1325 114.522 28.062 111.225C26.5447 106.532 28.6575 104.341 33.4715 105.447C46.8855 108.524 60.5051 109.651 74.2027 108.921C82.909 108.453 91.5586 107.007 100.251 106.234C123.91 104.128 147.086 105.475 168.654 116.833C186.357 126.163 200.118 139.549 208.874 157.635C213.752 167.71 216.751 178.409 216.85 189.745C216.886 194.035 217.262 198.366 216.758 202.592C216.07 208.363 218.538 212.73 221.714 217.027C232.32 231.363 240.445 247.031 246.606 263.735C248.031 267.592 249.4 271.477 251.08 276.128C256 258.382 262.856 242.309 271.066 226.825C273.987 221.309 277.873 216.268 280.439 210.611C282.594 205.875 284.246 200.642 284.771 195.488C286.366 179.819 290.003 164.782 296.179 150.283C303.24 133.714 313.662 119.577 326.7 107.354C337.768 96.9817 350.515 89.2041 364.808 84.0002C378.485 79.0231 392.53 75.9745 407.113 75.6342C417.131 75.4002 427.156 74.9961 437.174 75.0457C444.831 75.0812 452.481 76.0241 460.138 76.0028C474.368 75.9603 488.661 76.0028 502.131 70.1963C505.478 68.7499 507.966 70.3593 507.413 74.0319C506.485 80.1859 504.96 86.2689 503.415 92.3095C498.707 110.743 493.893 129.148 489.086 147.554C483.634 168.454 476.268 188.568 463.208 206.038C451.51 221.685 436.813 233.972 419.024 242.217C407.035 247.776 394.6 251.916 381.228 253.015C365.631 254.298 350.146 254.263 334.953 250.214C326.396 247.932 317.994 245.039 309.564 242.288C306.246 241.203 305.013 238.693 306.778 235.765C312.273 226.669 317.569 217.374 323.9 208.874C330.983 199.359 338.767 190.298 346.914 181.67C353.28 174.935 360.42 168.851 367.651 163.024C381.547 151.836 397.131 143.335 413.189 135.692C414.728 134.962 416.288 134.26 417.628 132.863C410.672 134.515 403.696 136.082 396.769 137.826C378.336 142.449 362.398 152.013 347.403 163.279C342.745 166.781 338.625 171 334.251 174.885C320.695 186.923 309.344 200.834 300.007 216.304C287.295 237.368 276.221 259.204 272.179 283.842C270.641 293.229 269.003 302.708 268.741 312.18C268.06 337.171 268.032 362.177 267.918 387.183C267.883 394.358 265.38 399.739 258.553 402.526C251.725 405.312 245.465 404.355 239.949 399.271C236.553 396.138 235.702 392.082 235.702 387.743C235.702 378.647 235.887 369.551 235.816 360.447C235.709 346.275 235.929 332.081 235.156 317.944C234.064 298 231.151 278.319 224.018 259.445C217.829 243.068 209.477 227.91 198.792 214.106C193.61 207.413 188.03 200.961 182.068 194.949C164.513 177.26 143.924 164.498 119.727 157.876C116.642 157.033 113.615 155.983 110.956 155.147H110.978ZM259.609 63.0781C249.215 86.5667 246.564 111.566 245.344 136.777C244.373 156.877 247.4 176.735 250.428 196.53C251.073 200.763 252.994 204.797 254.327 208.923C254.894 208.852 255.455 208.774 256.022 208.703C256.334 202.315 256.958 195.928 256.88 189.547C256.752 178.579 255.745 167.604 255.922 156.643C256.107 144.64 260.141 133.877 268.989 125.313C274.498 119.981 280.212 114.848 285.565 109.361C292.371 102.391 296.576 93.77 298.22 84.3476C299.575 76.5913 300.199 68.4947 299.582 60.6746C298.929 52.3866 296.966 44.0914 294.619 36.0728C291.655 25.9202 287.536 16.1149 284.303 6.03317C282.318 -0.170445 280.191 -1.41826 274.455 1.50276C273.739 1.87143 273.073 2.33936 272.399 2.78602C265.033 7.70637 257.589 12.4991 250.329 17.5754C239.651 25.0481 229.846 33.5701 222.416 44.3538C208.64 64.3542 206.173 85.4323 217.843 107.326C221.565 114.309 227.308 119.627 233.455 124.88C238.439 98.1728 244.742 72.5288 263.53 52.0179C262.24 55.7046 261.19 59.5048 259.609 63.071V63.0781Z" fill="url(#paint1_linear_1985_3442)"/>
<path d="M456.657 431.9C451.353 431.425 449.092 434.949 451.424 440.032C454.679 447.129 457.564 454.389 460.627 461.571C461.981 464.755 464.484 466.045 467.859 466.038C478.593 466.01 489.32 466.052 500.054 466.017C505.492 465.995 507.987 461.699 505.477 456.807C501.741 449.512 498.139 442.145 494.155 434.992C493.368 433.581 491.17 432.241 489.546 432.141C483.91 431.794 478.231 432.007 472.573 432.007C467.263 432.007 461.924 432.375 456.664 431.9H456.657ZM476.863 418.522C482.216 418.479 484.392 414.8 481.96 410.014C479.252 404.675 476.281 399.443 473.928 393.948C472.176 389.858 469.433 388.305 465.207 388.34C455.877 388.425 446.547 388.333 437.223 388.369C431.708 388.39 430.573 390.084 432.587 395.416C435.019 401.854 437.578 408.249 440.081 414.658C441.144 417.38 443.051 418.635 446.05 418.564C451.127 418.444 456.203 418.529 461.286 418.529C466.483 418.529 471.68 418.564 476.877 418.522H476.863ZM419.229 350.481C415.337 350.509 414.111 352.168 415.422 355.841C417.577 361.867 419.868 367.851 422.072 373.863C422.93 376.203 424.405 377.457 427.049 377.436C437.089 377.372 447.128 377.472 457.167 377.379C461.705 377.337 463.676 374.139 461.832 370.013C459.493 364.795 457.04 359.634 454.664 354.43C453.41 351.665 451.346 350.388 448.284 350.445C443.562 350.537 438.833 350.474 434.111 350.474C429.148 350.474 424.192 350.452 419.229 350.481Z" fill="url(#paint2_linear_1985_3442)"/>
<path d="M144.633 508.872C131.616 508.872 118.989 508.928 106.369 508.843C102.03 508.815 97.5914 508.935 93.3801 508.077C82.171 505.795 74.4076 499.236 71.2668 487.999C70.3948 484.887 70.1608 481.512 70.1467 478.258C70.1254 470.487 69.31 462.49 70.8698 455.003C72.5856 446.779 76.4708 438.98 79.6187 431.082C91.799 400.525 104.185 370.045 116.245 339.438C120.882 327.676 131.949 319.58 144.64 319.573C153.622 319.573 162.605 319.388 171.574 319.665C175.083 319.771 176.48 318.275 177.118 315.248C178.033 310.916 179.068 306.612 179.919 302.273C180.5 299.317 182.138 298.204 185.116 298.261C191.61 298.388 198.118 298.431 204.606 298.246C207.952 298.147 209.015 299.799 209.03 302.699C209.058 307.988 209.037 313.27 209.037 318.715C212.631 319.02 215.9 319.509 219.161 319.509C222.259 319.509 223.344 320.743 223.259 323.756C223.11 328.953 223.053 334.156 223.28 339.346C223.422 342.558 221.763 343.926 219.076 344.316C216.056 344.756 212.986 345.011 209.93 345.032C198.941 345.117 187.952 345.075 176.962 345.089C167.093 345.096 160.308 350.094 157.479 359.396C151.474 379.106 145.448 398.802 139.457 418.519C138.918 420.298 138.358 422.12 138.174 423.956C137.245 433.4 140.421 436.505 149.886 439.256C152.431 440.001 155.246 440.065 157.933 440.065C221.976 440.107 286.011 440.143 350.054 440.001C354.4 439.994 359.1 439.398 363.021 437.675C369.912 434.648 371.614 428.714 368.785 419.256C363.347 401.092 357.604 383.013 351.996 364.898C351.344 362.785 350.741 360.665 350.11 358.546C347.65 350.3 340.716 345.103 332.081 345.089C317.426 345.068 302.779 345.089 288.124 345.061C281.835 345.046 281.353 344.522 281.353 338.191C281.353 333.582 281.332 328.974 281.353 324.365C281.374 320.551 282.282 319.658 286.167 319.566C289.591 319.481 293.009 319.424 296.433 319.339C298.908 319.275 299.943 318.105 299.829 315.531C299.652 311.405 299.794 307.265 299.78 303.124C299.773 299.934 301.318 298.303 304.53 298.296C311.031 298.296 317.525 298.225 324.027 298.324C327.926 298.381 329.521 299.877 330.252 303.691C330.947 307.364 332.017 311.015 332.23 314.709C332.464 318.764 334.662 319.587 338.015 319.573C346.282 319.537 354.556 319.707 362.822 319.53C374.974 319.275 386.857 327.754 391.281 338.878C398.662 357.432 406.085 375.972 413.593 394.477C420.647 411.868 428.014 429.146 434.841 446.623C436.543 450.969 437.181 455.889 437.464 460.597C437.847 466.942 437.571 473.047 437.606 479.427C437.691 497.117 423.646 508.467 408.077 508.794C393.436 509.105 378.782 508.857 363.687 508.857C365.892 515.678 367.977 522.278 370.168 528.837C372.642 536.26 375.478 543.576 377.626 551.092C378.526 554.254 378.349 557.813 378.165 561.166C377.988 564.371 375.364 565.427 372.599 565.456C361.497 565.555 350.387 565.597 339.284 565.456C335.612 565.413 333.322 563.378 332.379 559.592C328.458 543.746 324.318 527.964 320.454 512.104C319.83 509.538 318.908 508.751 316.292 508.786C303.885 508.928 291.477 508.85 279.07 508.85H275.49C275.901 516.848 276.248 524.469 276.709 532.077C276.929 535.707 277.581 539.308 277.695 542.938C277.879 548.908 277.794 554.892 277.801 560.868C277.801 564.286 275.398 565.427 272.668 565.456C260.381 565.583 248.095 565.59 235.808 565.463C231.334 565.42 229.491 563.492 229.696 559.082C230.249 547.001 231.072 534.927 231.639 522.846C231.852 518.301 231.675 513.742 231.675 508.971C231.476 508.957 230.795 508.857 230.108 508.857C216.871 508.85 203.641 508.886 190.405 508.808C188.263 508.794 187.469 509.332 186.966 511.622C183.485 527.447 179.805 543.222 176.083 558.99C174.913 563.931 172.701 565.498 167.476 565.512C157.196 565.541 146.915 565.548 136.635 565.512C131.85 565.491 130.446 564.435 130.134 559.656C129.935 556.593 130.113 553.304 131.02 550.404C135.345 536.614 139.975 522.917 144.611 508.85L144.633 508.872ZM457.77 428.664C452.466 428.189 450.205 431.713 452.537 436.796C455.792 443.893 458.677 451.153 461.74 458.335C463.094 461.518 465.597 462.809 468.972 462.802C479.706 462.773 490.433 462.816 501.167 462.78C506.605 462.759 509.1 458.463 506.59 453.571C502.854 446.275 499.252 438.909 495.268 431.755C494.481 430.344 492.283 429.004 490.659 428.905C485.023 428.558 479.344 428.77 473.686 428.77C468.376 428.77 463.037 429.139 457.777 428.664H457.77ZM34.7258 462.717C38.6536 462.752 43.4959 462.093 45.0557 458.236C48.0405 450.862 51.6563 442.844 54.8184 435.541C56.8177 430.926 55.733 428.657 50.7205 428.558C39.6391 428.338 28.5505 428.423 17.4762 428.77C15.6187 428.827 13.0663 430.408 12.1375 432.025C8.06089 439.129 4.16857 446.382 0.786711 453.84C-1.23389 458.3 0.637823 462.844 6.40187 462.752C11.5916 462.674 12.9103 462.724 18.1001 462.724C23.1693 462.724 29.6495 462.66 34.7258 462.71V462.717ZM477.976 415.286C483.329 415.243 485.505 411.563 483.073 406.778C480.365 401.439 477.394 396.207 475.041 390.712C473.289 386.621 470.546 385.069 466.32 385.104C456.99 385.189 447.66 385.097 438.336 385.132C432.821 385.154 431.686 386.848 433.7 392.18C436.131 398.617 438.691 405.012 441.194 411.422C442.257 414.144 444.164 415.399 447.163 415.328C452.24 415.208 457.316 415.293 462.399 415.293C467.596 415.293 472.793 415.328 477.99 415.286H477.976ZM59.7813 415.236C62.6598 415.229 65.205 414.484 66.389 411.535C69.1328 404.7 71.8624 397.859 74.4644 390.975C75.8682 387.267 74.2658 384.991 70.2814 384.969C60.3768 384.913 50.4723 384.969 40.5749 384.976C37.6752 384.976 35.1299 385.891 33.7616 388.564C30.6137 394.725 27.4729 400.9 24.644 407.217C22.3965 412.223 24.5164 415.165 30.0749 415.229C34.9101 415.286 39.7454 415.243 44.5736 415.243C49.6428 415.243 54.7121 415.257 59.7813 415.243V415.236ZM420.342 347.244C416.45 347.273 415.224 348.932 416.535 352.604C418.69 358.631 420.98 364.614 423.185 370.627C424.043 372.966 425.518 374.221 428.162 374.2C438.202 374.136 448.241 374.235 458.28 374.143C462.818 374.101 464.789 370.903 462.945 366.777C460.606 361.559 458.153 356.397 455.777 351.193C454.523 348.428 452.459 347.152 449.397 347.209C444.675 347.301 439.946 347.237 435.224 347.237C430.261 347.237 425.305 347.216 420.342 347.244ZM78.378 373.441C81.2706 373.505 83.1282 372.229 84.0569 369.613C85.9357 364.317 87.8004 359.014 89.509 353.668C90.7781 349.719 89.1474 347.358 85.0708 347.315C75.62 347.223 66.1622 347.131 56.7185 347.429C54.9815 347.485 52.5071 348.967 51.7414 350.484C49.0969 355.688 46.5446 361.055 44.9423 366.642C43.737 370.832 43.9426 373.831 50.0257 373.47C54.6199 373.193 59.2354 373.413 63.8438 373.413C68.6861 373.413 73.5356 373.335 78.378 373.441Z" fill="url(#paint3_linear_1985_3442)"/>
<path d="M437.57 482.921C437.57 483.566 437.506 484.211 437.364 484.842C436.747 487.664 434.72 495.533 428.126 501.212C422.27 506.253 415.159 508.82 407.622 508.82L103.808 508.798C101.639 508.798 95.2581 508.642 92.7483 508.111C92.7483 508.111 89.2742 507.458 83.7016 504.545C78.7813 501.971 75.6334 497.767 72.0813 491.854C71.1313 490.273 70.4507 488.543 70.0395 486.742L69.9402 486.302C69.9402 486.302 69.9189 470.903 69.9189 466.196C69.9189 461.488 70.3727 457.964 70.3727 457.964C70.3727 457.964 73.5773 464.926 76.2431 467.876C78.9089 470.825 80.7451 472.924 86.7857 475.866C89.7209 477.298 93.5636 478.227 97.1085 478.702C100.653 479.177 104.071 479.156 105.928 479.163C136.174 479.184 401.185 479.361 409.409 479.163C418.13 478.95 424.766 475.76 427.474 473.278C436.79 464.763 436.308 457.291 437.024 455.717" fill="url(#paint4_linear_1985_3442)"/>
<path d="M130.219 555.363C130.219 555.363 130.098 557.597 132.225 557.597C134.352 557.597 167.072 557.597 169.305 557.597C171.538 557.597 174.8 555.363 174.8 555.363L174.353 563.091C174.353 563.091 174.098 565.346 169.61 565.424C165.966 565.488 138.003 565.424 134.508 565.424C130.41 565.424 130.119 561.085 130.119 561.085C130.119 561.085 130.077 558.745 130.077 557.391C130.077 556.037 130.212 555.363 130.212 555.363H130.219Z" fill="url(#paint5_linear_1985_3442)"/>
<path d="M230.001 555.363C230.001 555.363 229.881 557.597 232.008 557.597C234.135 557.597 266.854 557.667 269.087 557.597C277.489 557.334 277.744 555.363 277.744 555.363C277.744 555.363 277.914 559.922 277.914 561.163C277.914 564.261 276.177 565.402 270.931 565.587C267.287 565.714 237.793 565.424 234.305 565.424C230.207 565.424 229.916 561.085 229.916 561.085C229.916 561.085 229.874 558.745 229.874 557.391C229.874 556.037 230.008 555.363 230.008 555.363H230.001Z" fill="url(#paint6_linear_1985_3442)"/>
<path d="M333.498 555.272C333.498 555.272 333.867 557.584 335.675 557.584C337.802 557.584 370.522 557.626 372.755 557.584C378.072 557.477 378.207 554.209 378.207 554.209C378.207 554.209 378.349 559.463 378.349 560.703C378.349 563.894 377.087 565.744 369.011 565.574C365.367 565.496 343.318 565.553 339.823 565.574C334.725 565.609 333.364 562.15 333.364 562.15C333.364 562.15 333.527 558.739 333.527 557.378C333.527 556.017 333.491 555.272 333.491 555.272H333.498Z" fill="url(#paint7_linear_1985_3442)"/>
<defs>
<linearGradient id="paint0_linear_1985_3442" x1="121.322" y1="303.776" x2="7.3666" y2="468.53" gradientUnits="userSpaceOnUse">
<stop stop-color="#008EBE"/>
<stop offset="0.43" stop-color="#0078BE"/>
<stop offset="0.98" stop-color="#0058BF"/>
</linearGradient>
<linearGradient id="paint1_linear_1985_3442" x1="341.766" y1="-22.2908" x2="112.445" y2="407.304" gradientUnits="userSpaceOnUse">
<stop stop-color="#00C742"/>
<stop offset="0.29" stop-color="#00B36C"/>
<stop offset="0.93" stop-color="#0082D6"/>
<stop offset="1" stop-color="#007DE3"/>
</linearGradient>
<linearGradient id="paint2_linear_1985_3442" x1="460.499" y1="358.053" x2="460.84" y2="449.59" gradientUnits="userSpaceOnUse">
<stop stop-color="#308E76"/>
<stop offset="1" stop-color="#307B80"/>
</linearGradient>
<linearGradient id="paint3_linear_1985_3442" x1="445.575" y1="164.83" x2="156.848" y2="582.273" gradientUnits="userSpaceOnUse">
<stop stop-color="#00C742"/>
<stop offset="0.15" stop-color="#00BD57"/>
<stop offset="0.45" stop-color="#00A38E"/>
<stop offset="0.88" stop-color="#007DE3"/>
</linearGradient>
<linearGradient id="paint4_linear_1985_3442" x1="393.535" y1="411.228" x2="105.723" y2="548.835" gradientUnits="userSpaceOnUse">
<stop offset="0.02" stop-color="#00B0A8"/>
<stop offset="0.05" stop-color="#00A6AA"/>
<stop offset="0.15" stop-color="#0089B1"/>
<stop offset="0.26" stop-color="#0073B7"/>
<stop offset="0.38" stop-color="#0064BB"/>
<stop offset="0.52" stop-color="#005ABE"/>
<stop offset="0.71" stop-color="#0058BF"/>
</linearGradient>
<linearGradient id="paint5_linear_1985_3442" x1="189.1" y1="542.105" x2="153.119" y2="559.312" gradientUnits="userSpaceOnUse">
<stop offset="0.02" stop-color="#00B0A8"/>
<stop offset="0.05" stop-color="#00A6AA"/>
<stop offset="0.15" stop-color="#0089B1"/>
<stop offset="0.26" stop-color="#0073B7"/>
<stop offset="0.38" stop-color="#0064BB"/>
<stop offset="0.52" stop-color="#005ABE"/>
<stop offset="0.71" stop-color="#0058BF"/>
</linearGradient>
<linearGradient id="paint6_linear_1985_3442" x1="292.853" y1="540.971" x2="254.497" y2="559.305" gradientUnits="userSpaceOnUse">
<stop offset="0.02" stop-color="#00B0A8"/>
<stop offset="0.05" stop-color="#00A6AA"/>
<stop offset="0.15" stop-color="#0089B1"/>
<stop offset="0.26" stop-color="#0073B7"/>
<stop offset="0.38" stop-color="#0064BB"/>
<stop offset="0.52" stop-color="#005ABE"/>
<stop offset="0.71" stop-color="#0058BF"/>
</linearGradient>
<linearGradient id="paint7_linear_1985_3442" x1="393.195" y1="541.646" x2="356.583" y2="559.151" gradientUnits="userSpaceOnUse">
<stop offset="0.02" stop-color="#00B0A8"/>
<stop offset="0.05" stop-color="#00A6AA"/>
<stop offset="0.15" stop-color="#0089B1"/>
<stop offset="0.26" stop-color="#0073B7"/>
<stop offset="0.38" stop-color="#0064BB"/>
<stop offset="0.52" stop-color="#005ABE"/>
<stop offset="0.71" stop-color="#0058BF"/>
</linearGradient>
</defs>
</svg>





